<svg width="1383" height="42" viewBox="0 0 1383 42" fill="none" xmlns="http://www.w3.org/2000/svg">
<path d="M19.0703 4.89258C18.9727 4.72982 18.9238 4.55892 18.9238 4.37988C18.9238 4.07064 19.054 3.80208 19.3145 3.57422C19.5911 3.33008 19.876 3.20801 20.1689 3.20801C20.7223 3.20801 21.2188 3.41146 21.6582 3.81836C22.0977 4.20898 22.3174 4.59961 22.3174 4.99023C22.3174 5.75521 21.9756 6.4388 21.292 7.04102C20.6247 7.64323 19.8353 7.94434 18.9238 7.94434C17.9473 7.94434 17.1009 7.61882 16.3848 6.96777C15.6849 6.30046 15.335 5.51107 15.335 4.59961C15.335 3.70443 15.8883 2.8418 16.9951 2.01172C18.1182 1.16536 19.4609 0.742188 21.0234 0.742188C22.6022 0.742188 24.0589 1.20605 25.3936 2.13379C26.7445 3.06152 27.4199 4.18457 27.4199 5.50293C27.4199 7.60254 26.5492 9.18945 24.8076 10.2637C23.0824 11.3216 19.9248 12.1029 15.335 12.6074C15.4652 16.4323 15.5303 19.6631 15.5303 22.2998C15.5303 25.7178 15.3757 31.1702 15.0664 38.6572C17.6868 38.6572 19.8109 38.3236 21.4385 37.6562V39.1943C19.1436 39.5361 16.7591 39.7396 14.2852 39.8047C13.4388 39.8372 12.2507 40.0163 10.7207 40.3418V38.999L13.7725 38.8037C13.7725 35.5322 13.512 31.0645 12.9912 25.4004C12.4704 19.7201 11.8844 15.6348 11.2334 13.1445C9.16634 13.5677 6.09831 13.9827 2.0293 14.3896L2.37109 19.0039L1.07715 19.1504C0.963216 16.2533 0.727214 14.0397 0.369141 12.5098L1.63867 12.29L1.83398 13.291C6.3099 12.9004 10.5905 12.3389 14.6758 11.6064C18.7611 10.874 21.5199 10.0358 22.9521 9.0918C24.4007 8.13151 25.125 6.76432 25.125 4.99023C25.125 3.96484 24.7425 3.11849 23.9775 2.45117C23.2288 1.78385 22.2116 1.4502 20.9258 1.4502C20.0143 1.4502 19.1517 1.77572 18.3379 2.42676C17.5241 3.06152 17.1172 3.78581 17.1172 4.59961C17.1172 5.23438 17.3206 5.83659 17.7275 6.40625C18.1507 6.97591 18.6309 7.26074 19.168 7.26074C19.7539 7.26074 20.2178 7.08984 20.5596 6.74805C20.9014 6.40625 21.0723 5.99121 21.0723 5.50293C21.0723 5.25879 20.9827 5.01465 20.8037 4.77051C20.6247 4.52637 20.3968 4.4043 20.1201 4.4043C19.876 4.4043 19.526 4.56706 19.0703 4.89258ZM46.5514 33.5059C47.2838 33.7012 47.65 34.0023 47.65 34.4092C47.65 35.0114 47.4872 35.5404 47.1617 35.9961C46.8362 36.4355 46.413 36.6553 45.8922 36.6553C45.3225 36.6553 44.8424 36.403 44.4518 35.8984C44.0774 35.3939 43.8902 34.8405 43.8902 34.2383C43.8902 33.3105 44.3134 32.4154 45.1598 31.5527C46.0224 30.6901 46.7711 30.2588 47.4059 30.2588C48.8219 30.2588 49.9368 30.5599 50.7506 31.1621C51.5807 31.748 51.9957 32.6107 51.9957 33.75C51.9957 34.6777 51.6865 35.6868 51.068 36.7773C50.4658 37.8516 49.7659 38.7142 48.9684 39.3652C48.1871 40.0163 47.4059 40.415 46.6246 40.5615C45.8434 40.7243 44.7366 40.8057 43.3043 40.8057C42.6695 40.8057 41.2372 40.6592 39.0074 40.3662C36.7776 40.0895 34.9872 39.9512 33.6363 39.9512C32.676 39.9512 31.3251 40.1139 29.5836 40.4395V39.1455L32.3912 38.9502C31.8704 32.1143 31.317 26.7594 30.7311 22.8857C30.1614 19.012 29.2825 14.8128 28.0943 10.2881L25.482 10.5078V9.23828C31.0647 9.05924 36.0533 8.53027 40.4479 7.65137L45.941 6.55273C45.3714 9.61263 45.1516 12.2982 45.2818 14.6094H44.0855L44.232 9.0918L32.8551 9.84863C33.3759 17.3519 33.6363 22.487 33.6363 25.2539C38.4052 25.0423 42.1731 24.4564 44.94 23.4961V25.4492C41.5383 26.1165 37.7704 26.499 33.6363 26.5967C33.7014 28.2568 33.734 30.3971 33.734 33.0176C33.734 34.9382 33.7177 36.8831 33.6852 38.8525L43.1822 39.1455C46.1119 39.1455 47.9755 38.8118 48.773 38.1445C49.5868 37.4772 49.9937 36.4762 49.9937 35.1416C49.9937 32.8467 48.83 31.6992 46.5025 31.6992C46.1607 31.6992 45.8027 31.9108 45.4283 32.334C45.0702 32.7409 44.8912 33.2292 44.8912 33.7988C44.8912 34.2057 45.0621 34.5312 45.4039 34.7754C45.7457 35.0195 46.0549 35.1416 46.3316 35.1416C46.6734 35.1416 46.8443 34.9626 46.8443 34.6045C46.8443 34.2627 46.6734 33.9941 46.3316 33.7988L46.5514 33.5059ZM99.6336 39.4385C98.1525 40.1546 96.1098 40.6266 93.5057 40.8545C92.4152 36.1019 91.7478 31.1865 91.5037 26.1084C90.8201 26.1735 89.7133 26.2061 88.1834 26.2061C85.5955 26.2061 83.3657 26.0514 81.4939 25.7422C80.615 30.332 79.3455 33.8477 77.6853 36.2891C76.0415 38.7305 74.0965 39.9512 71.8504 39.9512C70.7273 39.9512 69.7264 39.4222 68.8475 38.3643C67.9848 37.29 67.5535 36.1507 67.5535 34.9463C67.5535 33.9697 67.9441 32.9199 68.7254 31.7969C69.5066 30.6576 70.3449 30.0879 71.24 30.0879C71.712 30.0879 72.184 30.3483 72.6561 30.8691C73.1443 31.3737 73.3885 31.8701 73.3885 32.3584C73.3885 32.9281 73.2176 33.5221 72.8758 34.1406C72.534 34.7428 72.1271 35.0439 71.6551 35.0439C71.59 35.0439 71.4679 34.9951 71.2889 34.8975C71.7609 34.5394 71.9969 34.0918 71.9969 33.5547C71.9969 33.2129 71.8748 32.8792 71.6307 32.5537C71.3865 32.2119 71.1098 32.041 70.8006 32.041C69.2706 32.041 68.5057 32.7246 68.5057 34.0918C68.5057 35.3451 68.8475 36.2728 69.5311 36.875C70.2146 37.4609 71.3702 37.7539 72.9978 37.7539C75.3253 37.7539 76.9367 36.3949 77.8318 33.6768C78.7433 30.9424 79.199 28.1185 79.199 25.2051C73.7303 23.9681 70.9959 22.0964 70.9959 19.5898C70.9959 18.8737 71.2156 18.2227 71.6551 17.6367C72.1108 17.0508 72.6561 16.7578 73.2908 16.7578H73.8035C73.2339 17.4414 72.949 18.2227 72.949 19.1016C72.949 20.3385 73.5024 21.4128 74.6092 22.3242C75.7159 23.2357 77.2296 23.9111 79.1502 24.3506C79.0525 23.0973 79.0037 21.8441 79.0037 20.5908C79.0037 18.0843 79.3211 16.0173 79.9559 14.3896C80.5906 12.7458 81.6567 11.2891 83.1541 10.0195C84.6515 8.73372 86.3361 7.78158 88.2078 7.16309C90.0796 6.52832 91.992 6.21094 93.9451 6.21094C95.117 6.21094 95.8006 6.22721 95.9959 6.25977C94.5636 12.9329 93.7661 18.8493 93.6033 24.0088C93.8963 23.9437 94.3439 23.8053 94.9461 23.5938L95.0437 25.7422C94.3439 25.8073 93.8637 25.8561 93.6033 25.8887V27.6465C93.6033 32.8223 93.9207 36.7367 94.5555 39.3896C95.7599 39.3571 97.3549 38.9421 99.3406 38.1445L99.6336 39.4385ZM92.285 7.40723C89.5018 7.30957 87.2068 8.2373 85.4002 10.1904C83.6098 12.1436 82.4542 16.2288 81.9334 22.4463C81.852 23.5368 81.7706 24.318 81.6893 24.79C83.0402 24.9365 84.1062 25.0098 84.8875 25.0098C86.629 25.0098 88.8019 24.8226 91.4061 24.4482C91.3247 22.5114 91.284 20.9977 91.284 19.9072C91.284 15.4801 91.6176 11.3135 92.285 7.40723ZM137.002 36.4111C137.426 36.5576 137.637 36.8018 137.637 37.1436C137.637 37.9411 137.076 38.3398 135.953 38.3398C135.448 38.3398 134.927 38.112 134.39 37.6562C133.853 37.2005 133.584 36.7285 133.584 36.2402C133.584 35.5241 133.991 34.8486 134.805 34.2139C135.619 33.5791 136.498 33.2617 137.442 33.2617C138.158 33.2617 138.793 33.5791 139.346 34.2139C139.916 34.8324 140.201 35.6299 140.201 36.6064C140.201 37.6807 139.655 38.8363 138.565 40.0732C137.474 41.3265 136.482 41.9531 135.586 41.9531C133.877 41.9531 132.616 41.416 131.802 40.3418C131.005 39.2839 130.508 38.0143 130.313 36.5332C130.134 35.0358 130.044 33.099 130.044 30.7227L130.362 17.417C130.362 16.0824 130.321 14.707 130.24 13.291C125.959 21.8197 123.379 27.9557 122.5 31.6992L121.084 31.7969C119.685 28.7207 117.951 25.1562 115.884 21.1035C113.817 17.0508 112.491 13.9014 111.905 11.6553C111.693 14.2269 111.587 17.2217 111.587 20.6396C111.587 26.2874 111.888 32.2933 112.491 38.6572C113.646 38.6572 115.184 38.7549 117.105 38.9502L116.934 39.9023C110.098 39.6908 106.582 39.5605 106.387 39.5117L106.485 38.291C108.633 38.584 110.269 38.7061 111.392 38.6572C110.106 30.4704 109.52 20.8024 109.634 9.65332C106.981 9.65332 105.142 9.72656 104.117 9.87305C103.107 10.0195 102.269 10.459 101.602 11.1914C100.935 11.9238 100.601 12.8923 100.601 14.0967C100.601 14.9919 100.935 15.7243 101.602 16.2939C102.286 16.8636 103.034 17.1484 103.848 17.1484C104.32 17.1484 104.751 17.0264 105.142 16.7822C105.549 16.5381 105.752 16.2614 105.752 15.9521C105.752 15.7731 105.647 15.5697 105.435 15.3418C105.223 15.1139 105.044 15 104.898 15C104.117 15 103.449 15.3174 102.896 15.9521C102.554 15.7243 102.383 15.4557 102.383 15.1465C102.383 14.7233 102.587 14.3571 102.994 14.0479C103.417 13.7223 103.783 13.5596 104.092 13.5596C104.662 13.5596 105.264 13.8037 105.899 14.292C106.534 14.764 106.851 15.2848 106.851 15.8545C106.851 16.6195 106.55 17.3193 105.948 17.9541C105.362 18.5889 104.727 18.9062 104.043 18.9062C102.953 18.9062 101.976 18.4505 101.114 17.5391C100.267 16.6276 99.8441 15.3825 99.8441 13.8037C99.8441 12.5667 100.357 11.4193 101.382 10.3613C102.408 9.28711 103.612 8.75 104.996 8.75C106.2 8.75 107.958 8.6849 110.269 8.55469C112.58 8.4082 114.175 8.25358 115.054 8.09082L115.396 9.14062C114.191 9.28711 113.288 9.36035 112.686 9.36035C114.265 14.0316 117.585 19.9154 122.647 27.0117C124.616 22.1126 126.187 18.4587 127.359 16.0498C128.547 13.641 129.524 11.3379 130.288 9.14062C130.044 9.07552 128.929 8.89648 126.944 8.60352L127.237 7.60254C127.79 7.78158 129.45 8.04199 132.217 8.38379C135 8.70931 137.36 8.91276 139.297 8.99414L139.053 10.0439C137.832 10.0439 136.213 9.89746 134.195 9.60449C134.065 10.1742 133.69 13.8932 133.072 20.7617C132.453 27.6139 132.144 32.6595 132.144 35.8984C132.144 39.4303 133.096 41.1963 135 41.1963C135.928 41.1963 136.726 40.8057 137.393 40.0244C138.06 39.2594 138.394 38.2992 138.394 37.1436C138.394 35.0114 137.881 33.9453 136.856 33.9453C136.498 33.9453 136.115 34.1162 135.708 34.458C135.301 34.7835 135.098 35.1497 135.098 35.5566C135.098 36.0938 135.228 36.582 135.489 37.0215C135.749 37.4447 136.034 37.6562 136.343 37.6562C136.783 37.6562 137.002 37.2412 137.002 36.4111ZM158.453 17.002C158.193 17.3926 157.859 17.5879 157.452 17.5879C157.175 17.5879 156.907 17.3763 156.646 16.9531C156.386 16.5299 156.256 16.1637 156.256 15.8545C156.256 15.4964 156.484 15.0977 156.939 14.6582C157.411 14.2188 157.9 13.999 158.404 13.999C158.893 13.999 159.422 14.3164 159.991 14.9512C160.561 15.5859 160.846 16.1719 160.846 16.709C160.846 17.946 160.447 18.9876 159.649 19.834C158.868 20.6803 158.03 21.1035 157.135 21.1035C156.109 21.1035 155.214 20.6396 154.449 19.7119C153.684 18.7679 153.302 17.7344 153.302 16.6113C153.302 15 154.083 13.4701 155.646 12.0215C157.208 10.5729 159.161 9.84863 161.505 9.84863C164.955 9.84863 168.056 11.2891 170.807 14.1699C173.557 17.0508 174.933 20.1921 174.933 23.5938C174.933 27.8743 173.443 31.7562 170.465 35.2393C167.486 38.7061 164.044 40.4395 160.138 40.4395C155.629 40.4395 151.804 38.9583 148.663 35.9961C145.522 33.0176 143.951 29.502 143.951 25.4492C143.951 21.5104 145.213 17.9215 147.735 14.6826C150.274 11.4437 153.391 9.36849 157.086 8.45703L157.403 9.18945C154.409 9.77539 152 11.5332 150.177 14.4629C148.354 17.3926 147.442 20.835 147.442 24.79C147.442 28.9404 148.671 32.4479 151.129 35.3125C153.587 38.1771 156.728 39.6094 160.553 39.6094C163.645 39.6094 166.192 38.0957 168.194 35.0684C170.196 32.041 171.197 28.5498 171.197 24.5947C171.197 20.6722 170.229 17.4333 168.292 14.8779C166.355 12.3226 163.857 11.0449 160.797 11.0449C158.925 11.0449 157.346 11.6227 156.061 12.7783C154.791 13.9176 154.156 15.1709 154.156 16.5381C154.156 17.2705 154.457 17.8809 155.06 18.3691C155.662 18.8574 156.288 19.1016 156.939 19.1016C157.77 19.1016 158.478 18.9062 159.063 18.5156C159.649 18.1087 159.942 17.6204 159.942 17.0508C159.942 16.5788 159.771 16.1882 159.43 15.8789C159.088 15.5534 158.714 15.3906 158.307 15.3906C157.363 15.3906 156.891 15.5452 156.891 15.8545C156.891 16.1312 157.411 16.5137 158.453 17.002ZM219.095 9.23828C217.337 9.61263 215.888 10.4427 214.749 11.7285C213.61 12.998 213.04 14.4059 213.04 15.9521C213.04 17.596 213.463 19.1423 214.309 20.5908C215.172 22.0231 216.271 22.7393 217.605 22.7393C219.249 22.7393 220.535 22.1452 221.463 20.957C222.39 19.7689 222.854 18.2308 222.854 16.3428C222.854 15.1383 222.545 14.1211 221.927 13.291C221.308 12.4609 220.478 12.0459 219.436 12.0459C218.85 12.0459 218.395 12.3307 218.069 12.9004C217.76 13.4701 217.605 14.1699 217.605 15C217.605 15.9928 217.923 16.4893 218.557 16.4893C218.883 16.4893 219.111 16.4404 219.241 16.3428C219.371 16.2288 219.436 15.9847 219.436 15.6104C219.436 15.415 219.404 15.1465 219.339 14.8047C219.274 14.4629 219.241 14.2106 219.241 14.0479C219.241 13.6572 219.339 13.4619 219.534 13.4619C219.957 13.4619 220.307 13.5921 220.584 13.8525C220.86 14.113 220.999 14.4629 220.999 14.9023C220.999 15.5046 220.755 16.0498 220.266 16.5381C219.778 17.0101 219.241 17.2461 218.655 17.2461C218.004 17.2461 217.394 17.0426 216.824 16.6357C216.271 16.2288 215.994 15.7324 215.994 15.1465C215.994 14.1211 216.425 13.1934 217.288 12.3633C218.167 11.5169 219.119 11.0938 220.144 11.0938C221.479 11.0938 222.692 11.5983 223.782 12.6074C224.889 13.6165 225.442 14.764 225.442 16.0498C225.442 17.0915 225.222 18.0762 224.783 19.0039C224.344 19.9154 223.733 20.721 222.952 21.4209C222.171 22.1045 221.422 22.6253 220.706 22.9834C219.99 23.3252 218.956 23.4961 217.605 23.4961C215.847 23.4961 214.244 22.7555 212.796 21.2744C211.363 19.777 210.647 18.1494 210.647 16.3916C210.647 14.6175 211.469 12.9492 213.113 11.3867C214.773 9.80794 216.669 8.88021 218.802 8.60352L219.095 9.23828ZM260.531 4.89258C260.434 4.72982 260.385 4.55892 260.385 4.37988C260.385 4.07064 260.515 3.80208 260.775 3.57422C261.052 3.33008 261.337 3.20801 261.63 3.20801C262.183 3.20801 262.68 3.41146 263.119 3.81836C263.559 4.20898 263.778 4.59961 263.778 4.99023C263.778 5.75521 263.437 6.4388 262.753 7.04102C262.086 7.64323 261.296 7.94434 260.385 7.94434C259.408 7.94434 258.562 7.61882 257.846 6.96777C257.146 6.30046 256.796 5.51107 256.796 4.59961C256.796 3.70443 257.349 2.8418 258.456 2.01172C259.579 1.16536 260.922 0.742188 262.484 0.742188C264.063 0.742188 265.52 1.20605 266.854 2.13379C268.205 3.06152 268.881 4.18457 268.881 5.50293C268.881 7.60254 268.01 9.18945 266.269 10.2637C264.543 11.3216 261.386 12.1029 256.796 12.6074C256.926 16.4323 256.991 19.6631 256.991 22.2998C256.991 25.7178 256.837 31.1702 256.527 38.6572C259.148 38.6572 261.272 38.3236 262.899 37.6562V39.1943C260.604 39.5361 258.22 39.7396 255.746 39.8047C254.9 39.8372 253.712 40.0163 252.182 40.3418V38.999L255.233 38.8037C255.233 35.5322 254.973 31.0645 254.452 25.4004C253.931 19.7201 253.345 15.6348 252.694 13.1445C250.627 13.5677 247.559 13.9827 243.49 14.3896L243.832 19.0039L242.538 19.1504C242.424 16.2533 242.188 14.0397 241.83 12.5098L243.1 12.29L243.295 13.291C247.771 12.9004 252.051 12.3389 256.137 11.6064C260.222 10.874 262.981 10.0358 264.413 9.0918C265.862 8.13151 266.586 6.76432 266.586 4.99023C266.586 3.96484 266.203 3.11849 265.438 2.45117C264.69 1.78385 263.673 1.4502 262.387 1.4502C261.475 1.4502 260.613 1.77572 259.799 2.42676C258.985 3.06152 258.578 3.78581 258.578 4.59961C258.578 5.23438 258.782 5.83659 259.188 6.40625C259.612 6.97591 260.092 7.26074 260.629 7.26074C261.215 7.26074 261.679 7.08984 262.021 6.74805C262.362 6.40625 262.533 5.99121 262.533 5.50293C262.533 5.25879 262.444 5.01465 262.265 4.77051C262.086 4.52637 261.858 4.4043 261.581 4.4043C261.337 4.4043 260.987 4.56706 260.531 4.89258ZM288.012 33.5059C288.745 33.7012 289.111 34.0023 289.111 34.4092C289.111 35.0114 288.948 35.5404 288.623 35.9961C288.297 36.4355 287.874 36.6553 287.353 36.6553C286.783 36.6553 286.303 36.403 285.913 35.8984C285.538 35.3939 285.351 34.8405 285.351 34.2383C285.351 33.3105 285.774 32.4154 286.621 31.5527C287.483 30.6901 288.232 30.2588 288.867 30.2588C290.283 30.2588 291.398 30.5599 292.212 31.1621C293.042 31.748 293.457 32.6107 293.457 33.75C293.457 34.6777 293.147 35.6868 292.529 36.7773C291.927 37.8516 291.227 38.7142 290.429 39.3652C289.648 40.0163 288.867 40.415 288.086 40.5615C287.304 40.7243 286.198 40.8057 284.765 40.8057C284.13 40.8057 282.698 40.6592 280.468 40.3662C278.239 40.0895 276.448 39.9512 275.097 39.9512C274.137 39.9512 272.786 40.1139 271.045 40.4395V39.1455L273.852 38.9502C273.331 32.1143 272.778 26.7594 272.192 22.8857C271.622 19.012 270.743 14.8128 269.555 10.2881L266.943 10.5078V9.23828C272.526 9.05924 277.514 8.53027 281.909 7.65137L287.402 6.55273C286.832 9.61263 286.613 12.2982 286.743 14.6094H285.546L285.693 9.0918L274.316 9.84863C274.837 17.3519 275.097 22.487 275.097 25.2539C279.866 25.0423 283.634 24.4564 286.401 23.4961V25.4492C282.999 26.1165 279.231 26.499 275.097 26.5967C275.162 28.2568 275.195 30.3971 275.195 33.0176C275.195 34.9382 275.179 36.8831 275.146 38.8525L284.643 39.1455C287.573 39.1455 289.436 38.8118 290.234 38.1445C291.048 37.4772 291.455 36.4762 291.455 35.1416C291.455 32.8467 290.291 31.6992 287.963 31.6992C287.622 31.6992 287.264 31.9108 286.889 32.334C286.531 32.7409 286.352 33.2292 286.352 33.7988C286.352 34.2057 286.523 34.5312 286.865 34.7754C287.207 35.0195 287.516 35.1416 287.793 35.1416C288.134 35.1416 288.305 34.9626 288.305 34.6045C288.305 34.2627 288.134 33.9941 287.793 33.7988L288.012 33.5059ZM341.095 39.4385C339.613 40.1546 337.571 40.6266 334.967 40.8545C333.876 36.1019 333.209 31.1865 332.965 26.1084C332.281 26.1735 331.174 26.2061 329.644 26.2061C327.056 26.2061 324.827 26.0514 322.955 25.7422C322.076 30.332 320.806 33.8477 319.146 36.2891C317.502 38.7305 315.557 39.9512 313.311 39.9512C312.188 39.9512 311.187 39.4222 310.308 38.3643C309.446 37.29 309.014 36.1507 309.014 34.9463C309.014 33.9697 309.405 32.9199 310.186 31.7969C310.968 30.6576 311.806 30.0879 312.701 30.0879C313.173 30.0879 313.645 30.3483 314.117 30.8691C314.605 31.3737 314.849 31.8701 314.849 32.3584C314.849 32.9281 314.679 33.5221 314.337 34.1406C313.995 34.7428 313.588 35.0439 313.116 35.0439C313.051 35.0439 312.929 34.9951 312.75 34.8975C313.222 34.5394 313.458 34.0918 313.458 33.5547C313.458 33.2129 313.336 32.8792 313.092 32.5537C312.847 32.2119 312.571 32.041 312.262 32.041C310.732 32.041 309.967 32.7246 309.967 34.0918C309.967 35.3451 310.308 36.2728 310.992 36.875C311.676 37.4609 312.831 37.7539 314.459 37.7539C316.786 37.7539 318.398 36.3949 319.293 33.6768C320.204 30.9424 320.66 28.1185 320.66 25.2051C315.191 23.9681 312.457 22.0964 312.457 19.5898C312.457 18.8737 312.677 18.2227 313.116 17.6367C313.572 17.0508 314.117 16.7578 314.752 16.7578H315.264C314.695 17.4414 314.41 18.2227 314.41 19.1016C314.41 20.3385 314.963 21.4128 316.07 22.3242C317.177 23.2357 318.691 23.9111 320.611 24.3506C320.513 23.0973 320.465 21.8441 320.465 20.5908C320.465 18.0843 320.782 16.0173 321.417 14.3896C322.052 12.7458 323.118 11.2891 324.615 10.0195C326.112 8.73372 327.797 7.78158 329.669 7.16309C331.541 6.52832 333.453 6.21094 335.406 6.21094C336.578 6.21094 337.262 6.22721 337.457 6.25977C336.025 12.9329 335.227 18.8493 335.064 24.0088C335.357 23.9437 335.805 23.8053 336.407 23.5938L336.505 25.7422C335.805 25.8073 335.325 25.8561 335.064 25.8887V27.6465C335.064 32.8223 335.382 36.7367 336.016 39.3896C337.221 39.3571 338.816 38.9421 340.802 38.1445L341.095 39.4385ZM333.746 7.40723C330.963 7.30957 328.668 8.2373 326.861 10.1904C325.071 12.1436 323.915 16.2288 323.394 22.4463C323.313 23.5368 323.232 24.318 323.15 24.79C324.501 24.9365 325.567 25.0098 326.348 25.0098C328.09 25.0098 330.263 24.8226 332.867 24.4482C332.786 22.5114 332.745 20.9977 332.745 19.9072C332.745 15.4801 333.079 11.3135 333.746 7.40723ZM378.463 36.4111C378.886 36.5576 379.098 36.8018 379.098 37.1436C379.098 37.9411 378.537 38.3398 377.413 38.3398C376.909 38.3398 376.388 38.112 375.851 37.6562C375.314 37.2005 375.045 36.7285 375.045 36.2402C375.045 35.5241 375.452 34.8486 376.266 34.2139C377.08 33.5791 377.959 33.2617 378.903 33.2617C379.619 33.2617 380.254 33.5791 380.807 34.2139C381.377 34.8324 381.662 35.6299 381.662 36.6064C381.662 37.6807 381.116 38.8363 380.026 40.0732C378.935 41.3265 377.942 41.9531 377.047 41.9531C375.338 41.9531 374.077 41.416 373.263 40.3418C372.466 39.2839 371.969 38.0143 371.774 36.5332C371.595 35.0358 371.505 33.099 371.505 30.7227L371.823 17.417C371.823 16.0824 371.782 14.707 371.701 13.291C367.42 21.8197 364.84 27.9557 363.961 31.6992L362.545 31.7969C361.146 28.7207 359.412 25.1562 357.345 21.1035C355.278 17.0508 353.952 13.9014 353.366 11.6553C353.154 14.2269 353.048 17.2217 353.048 20.6396C353.048 26.2874 353.349 32.2933 353.952 38.6572C355.107 38.6572 356.645 38.7549 358.566 38.9502L358.395 39.9023C351.559 39.6908 348.043 39.5605 347.848 39.5117L347.946 38.291C350.094 38.584 351.73 38.7061 352.853 38.6572C351.567 30.4704 350.981 20.8024 351.095 9.65332C348.442 9.65332 346.603 9.72656 345.578 9.87305C344.568 10.0195 343.73 10.459 343.063 11.1914C342.396 11.9238 342.062 12.8923 342.062 14.0967C342.062 14.9919 342.396 15.7243 343.063 16.2939C343.746 16.8636 344.495 17.1484 345.309 17.1484C345.781 17.1484 346.212 17.0264 346.603 16.7822C347.01 16.5381 347.213 16.2614 347.213 15.9521C347.213 15.7731 347.107 15.5697 346.896 15.3418C346.684 15.1139 346.505 15 346.359 15C345.578 15 344.91 15.3174 344.357 15.9521C344.015 15.7243 343.844 15.4557 343.844 15.1465C343.844 14.7233 344.048 14.3571 344.454 14.0479C344.878 13.7223 345.244 13.5596 345.553 13.5596C346.123 13.5596 346.725 13.8037 347.36 14.292C347.995 14.764 348.312 15.2848 348.312 15.8545C348.312 16.6195 348.011 17.3193 347.409 17.9541C346.823 18.5889 346.188 18.9062 345.504 18.9062C344.414 18.9062 343.437 18.4505 342.575 17.5391C341.728 16.6276 341.305 15.3825 341.305 13.8037C341.305 12.5667 341.818 11.4193 342.843 10.3613C343.869 9.28711 345.073 8.75 346.456 8.75C347.661 8.75 349.419 8.6849 351.73 8.55469C354.041 8.4082 355.636 8.25358 356.515 8.09082L356.857 9.14062C355.652 9.28711 354.749 9.36035 354.147 9.36035C355.726 14.0316 359.046 19.9154 364.108 27.0117C366.077 22.1126 367.648 18.4587 368.82 16.0498C370.008 13.641 370.984 11.3379 371.749 9.14062C371.505 9.07552 370.39 8.89648 368.405 8.60352L368.698 7.60254C369.251 7.78158 370.911 8.04199 373.678 8.38379C376.461 8.70931 378.821 8.91276 380.758 8.99414L380.514 10.0439C379.293 10.0439 377.674 9.89746 375.656 9.60449C375.525 10.1742 375.151 13.8932 374.533 20.7617C373.914 27.6139 373.605 32.6595 373.605 35.8984C373.605 39.4303 374.557 41.1963 376.461 41.1963C377.389 41.1963 378.187 40.8057 378.854 40.0244C379.521 39.2594 379.855 38.2992 379.855 37.1436C379.855 35.0114 379.342 33.9453 378.317 33.9453C377.959 33.9453 377.576 34.1162 377.169 34.458C376.762 34.7835 376.559 35.1497 376.559 35.5566C376.559 36.0938 376.689 36.582 376.95 37.0215C377.21 37.4447 377.495 37.6562 377.804 37.6562C378.244 37.6562 378.463 37.2412 378.463 36.4111ZM399.914 17.002C399.654 17.3926 399.32 17.5879 398.913 17.5879C398.636 17.5879 398.368 17.3763 398.107 16.9531C397.847 16.5299 397.717 16.1637 397.717 15.8545C397.717 15.4964 397.945 15.0977 398.4 14.6582C398.872 14.2188 399.361 13.999 399.865 13.999C400.354 13.999 400.882 14.3164 401.452 14.9512C402.022 15.5859 402.307 16.1719 402.307 16.709C402.307 17.946 401.908 18.9876 401.11 19.834C400.329 20.6803 399.491 21.1035 398.596 21.1035C397.57 21.1035 396.675 20.6396 395.91 19.7119C395.145 18.7679 394.763 17.7344 394.763 16.6113C394.763 15 395.544 13.4701 397.106 12.0215C398.669 10.5729 400.622 9.84863 402.966 9.84863C406.416 9.84863 409.517 11.2891 412.268 14.1699C415.018 17.0508 416.394 20.1921 416.394 23.5938C416.394 27.8743 414.904 31.7562 411.926 35.2393C408.947 38.7061 405.505 40.4395 401.599 40.4395C397.09 40.4395 393.265 38.9583 390.124 35.9961C386.983 33.0176 385.412 29.502 385.412 25.4492C385.412 21.5104 386.674 17.9215 389.196 14.6826C391.735 11.4437 394.852 9.36849 398.547 8.45703L398.864 9.18945C395.869 9.77539 393.461 11.5332 391.638 14.4629C389.815 17.3926 388.903 20.835 388.903 24.79C388.903 28.9404 390.132 32.4479 392.59 35.3125C395.048 38.1771 398.189 39.6094 402.014 39.6094C405.106 39.6094 407.653 38.0957 409.655 35.0684C411.657 32.041 412.658 28.5498 412.658 24.5947C412.658 20.6722 411.69 17.4333 409.753 14.8779C407.816 12.3226 405.318 11.0449 402.258 11.0449C400.386 11.0449 398.807 11.6227 397.521 12.7783C396.252 13.9176 395.617 15.1709 395.617 16.5381C395.617 17.2705 395.918 17.8809 396.521 18.3691C397.123 18.8574 397.749 19.1016 398.4 19.1016C399.23 19.1016 399.938 18.9062 400.524 18.5156C401.11 18.1087 401.403 17.6204 401.403 17.0508C401.403 16.5788 401.232 16.1882 400.891 15.8789C400.549 15.5534 400.174 15.3906 399.768 15.3906C398.824 15.3906 398.352 15.5452 398.352 15.8545C398.352 16.1312 398.872 16.5137 399.914 17.002ZM460.555 9.23828C458.798 9.61263 457.349 10.4427 456.21 11.7285C455.07 12.998 454.501 14.4059 454.501 15.9521C454.501 17.596 454.924 19.1423 455.77 20.5908C456.633 22.0231 457.732 22.7393 459.066 22.7393C460.71 22.7393 461.996 22.1452 462.924 20.957C463.851 19.7689 464.315 18.2308 464.315 16.3428C464.315 15.1383 464.006 14.1211 463.388 13.291C462.769 12.4609 461.939 12.0459 460.897 12.0459C460.311 12.0459 459.856 12.3307 459.53 12.9004C459.221 13.4701 459.066 14.1699 459.066 15C459.066 15.9928 459.384 16.4893 460.018 16.4893C460.344 16.4893 460.572 16.4404 460.702 16.3428C460.832 16.2288 460.897 15.9847 460.897 15.6104C460.897 15.415 460.865 15.1465 460.8 14.8047C460.735 14.4629 460.702 14.2106 460.702 14.0479C460.702 13.6572 460.8 13.4619 460.995 13.4619C461.418 13.4619 461.768 13.5921 462.045 13.8525C462.321 14.113 462.46 14.4629 462.46 14.9023C462.46 15.5046 462.216 16.0498 461.727 16.5381C461.239 17.0101 460.702 17.2461 460.116 17.2461C459.465 17.2461 458.855 17.0426 458.285 16.6357C457.732 16.2288 457.455 15.7324 457.455 15.1465C457.455 14.1211 457.886 13.1934 458.749 12.3633C459.628 11.5169 460.58 11.0938 461.605 11.0938C462.94 11.0938 464.152 11.5983 465.243 12.6074C466.35 13.6165 466.903 14.764 466.903 16.0498C466.903 17.0915 466.683 18.0762 466.244 19.0039C465.805 19.9154 465.194 20.721 464.413 21.4209C463.632 22.1045 462.883 22.6253 462.167 22.9834C461.451 23.3252 460.417 23.4961 459.066 23.4961C457.308 23.4961 455.705 22.7555 454.257 21.2744C452.824 19.777 452.108 18.1494 452.108 16.3916C452.108 14.6175 452.93 12.9492 454.574 11.3867C456.234 9.80794 458.13 8.88021 460.263 8.60352L460.555 9.23828ZM501.992 4.89258C501.895 4.72982 501.846 4.55892 501.846 4.37988C501.846 4.07064 501.976 3.80208 502.236 3.57422C502.513 3.33008 502.798 3.20801 503.091 3.20801C503.644 3.20801 504.141 3.41146 504.58 3.81836C505.02 4.20898 505.239 4.59961 505.239 4.99023C505.239 5.75521 504.897 6.4388 504.214 7.04102C503.547 7.64323 502.757 7.94434 501.846 7.94434C500.869 7.94434 500.023 7.61882 499.307 6.96777C498.607 6.30046 498.257 5.51107 498.257 4.59961C498.257 3.70443 498.81 2.8418 499.917 2.01172C501.04 1.16536 502.383 0.742188 503.945 0.742188C505.524 0.742188 506.981 1.20605 508.315 2.13379C509.666 3.06152 510.342 4.18457 510.342 5.50293C510.342 7.60254 509.471 9.18945 507.729 10.2637C506.004 11.3216 502.847 12.1029 498.257 12.6074C498.387 16.4323 498.452 19.6631 498.452 22.2998C498.452 25.7178 498.298 31.1702 497.988 38.6572C500.609 38.6572 502.733 38.3236 504.36 37.6562V39.1943C502.065 39.5361 499.681 39.7396 497.207 39.8047C496.361 39.8372 495.173 40.0163 493.643 40.3418V38.999L496.694 38.8037C496.694 35.5322 496.434 31.0645 495.913 25.4004C495.392 19.7201 494.806 15.6348 494.155 13.1445C492.088 13.5677 489.02 13.9827 484.951 14.3896L485.293 19.0039L483.999 19.1504C483.885 16.2533 483.649 14.0397 483.291 12.5098L484.561 12.29L484.756 13.291C489.232 12.9004 493.512 12.3389 497.598 11.6064C501.683 10.874 504.442 10.0358 505.874 9.0918C507.323 8.13151 508.047 6.76432 508.047 4.99023C508.047 3.96484 507.664 3.11849 506.899 2.45117C506.151 1.78385 505.133 1.4502 503.848 1.4502C502.936 1.4502 502.074 1.77572 501.26 2.42676C500.446 3.06152 500.039 3.78581 500.039 4.59961C500.039 5.23438 500.243 5.83659 500.649 6.40625C501.073 6.97591 501.553 7.26074 502.09 7.26074C502.676 7.26074 503.14 7.08984 503.481 6.74805C503.823 6.40625 503.994 5.99121 503.994 5.50293C503.994 5.25879 503.905 5.01465 503.726 4.77051C503.547 4.52637 503.319 4.4043 503.042 4.4043C502.798 4.4043 502.448 4.56706 501.992 4.89258ZM529.473 33.5059C530.206 33.7012 530.572 34.0023 530.572 34.4092C530.572 35.0114 530.409 35.5404 530.084 35.9961C529.758 36.4355 529.335 36.6553 528.814 36.6553C528.244 36.6553 527.764 36.403 527.374 35.8984C526.999 35.3939 526.812 34.8405 526.812 34.2383C526.812 33.3105 527.235 32.4154 528.082 31.5527C528.944 30.6901 529.693 30.2588 530.328 30.2588C531.744 30.2588 532.859 30.5599 533.672 31.1621C534.503 31.748 534.918 32.6107 534.918 33.75C534.918 34.6777 534.608 35.6868 533.99 36.7773C533.388 37.8516 532.688 38.7142 531.89 39.3652C531.109 40.0163 530.328 40.415 529.546 40.5615C528.765 40.7243 527.658 40.8057 526.226 40.8057C525.591 40.8057 524.159 40.6592 521.929 40.3662C519.699 40.0895 517.909 39.9512 516.558 39.9512C515.598 39.9512 514.247 40.1139 512.505 40.4395V39.1455L515.313 38.9502C514.792 32.1143 514.239 26.7594 513.653 22.8857C513.083 19.012 512.204 14.8128 511.016 10.2881L508.404 10.5078V9.23828C513.987 9.05924 518.975 8.53027 523.37 7.65137L528.863 6.55273C528.293 9.61263 528.073 12.2982 528.204 14.6094H527.007L527.154 9.0918L515.777 9.84863C516.298 17.3519 516.558 22.487 516.558 25.2539C521.327 25.0423 525.095 24.4564 527.862 23.4961V25.4492C524.46 26.1165 520.692 26.499 516.558 26.5967C516.623 28.2568 516.656 30.3971 516.656 33.0176C516.656 34.9382 516.64 36.8831 516.607 38.8525L526.104 39.1455C529.034 39.1455 530.897 38.8118 531.695 38.1445C532.509 37.4772 532.916 36.4762 532.916 35.1416C532.916 32.8467 531.752 31.6992 529.424 31.6992C529.083 31.6992 528.725 31.9108 528.35 32.334C527.992 32.7409 527.813 33.2292 527.813 33.7988C527.813 34.2057 527.984 34.5312 528.326 34.7754C528.668 35.0195 528.977 35.1416 529.254 35.1416C529.595 35.1416 529.766 34.9626 529.766 34.6045C529.766 34.2627 529.595 33.9941 529.254 33.7988L529.473 33.5059ZM582.555 39.4385C581.074 40.1546 579.032 40.6266 576.428 40.8545C575.337 36.1019 574.67 31.1865 574.426 26.1084C573.742 26.1735 572.635 26.2061 571.105 26.2061C568.517 26.2061 566.288 26.0514 564.416 25.7422C563.537 30.332 562.267 33.8477 560.607 36.2891C558.963 38.7305 557.018 39.9512 554.772 39.9512C553.649 39.9512 552.648 39.4222 551.769 38.3643C550.907 37.29 550.475 36.1507 550.475 34.9463C550.475 33.9697 550.866 32.9199 551.647 31.7969C552.429 30.6576 553.267 30.0879 554.162 30.0879C554.634 30.0879 555.106 30.3483 555.578 30.8691C556.066 31.3737 556.31 31.8701 556.31 32.3584C556.31 32.9281 556.139 33.5221 555.798 34.1406C555.456 34.7428 555.049 35.0439 554.577 35.0439C554.512 35.0439 554.39 34.9951 554.211 34.8975C554.683 34.5394 554.919 34.0918 554.919 33.5547C554.919 33.2129 554.797 32.8792 554.553 32.5537C554.308 32.2119 554.032 32.041 553.722 32.041C552.193 32.041 551.428 32.7246 551.428 34.0918C551.428 35.3451 551.769 36.2728 552.453 36.875C553.137 37.4609 554.292 37.7539 555.92 37.7539C558.247 37.7539 559.859 36.3949 560.754 33.6768C561.665 30.9424 562.121 28.1185 562.121 25.2051C556.652 23.9681 553.918 22.0964 553.918 19.5898C553.918 18.8737 554.138 18.2227 554.577 17.6367C555.033 17.0508 555.578 16.7578 556.213 16.7578H556.725C556.156 17.4414 555.871 18.2227 555.871 19.1016C555.871 20.3385 556.424 21.4128 557.531 22.3242C558.638 23.2357 560.152 23.9111 562.072 24.3506C561.974 23.0973 561.926 21.8441 561.926 20.5908C561.926 18.0843 562.243 16.0173 562.878 14.3896C563.513 12.7458 564.579 11.2891 566.076 10.0195C567.573 8.73372 569.258 7.78158 571.13 7.16309C573.001 6.52832 574.914 6.21094 576.867 6.21094C578.039 6.21094 578.722 6.22721 578.918 6.25977C577.485 12.9329 576.688 18.8493 576.525 24.0088C576.818 23.9437 577.266 23.8053 577.868 23.5938L577.966 25.7422C577.266 25.8073 576.786 25.8561 576.525 25.8887V27.6465C576.525 32.8223 576.843 36.7367 577.477 39.3896C578.682 39.3571 580.277 38.9421 582.263 38.1445L582.555 39.4385ZM575.207 7.40723C572.424 7.30957 570.129 8.2373 568.322 10.1904C566.532 12.1436 565.376 16.2288 564.855 22.4463C564.774 23.5368 564.693 24.318 564.611 24.79C565.962 24.9365 567.028 25.0098 567.809 25.0098C569.551 25.0098 571.724 24.8226 574.328 24.4482C574.247 22.5114 574.206 20.9977 574.206 19.9072C574.206 15.4801 574.54 11.3135 575.207 7.40723ZM619.924 36.4111C620.347 36.5576 620.559 36.8018 620.559 37.1436C620.559 37.9411 619.997 38.3398 618.874 38.3398C618.37 38.3398 617.849 38.112 617.312 37.6562C616.775 37.2005 616.506 36.7285 616.506 36.2402C616.506 35.5241 616.913 34.8486 617.727 34.2139C618.541 33.5791 619.42 33.2617 620.364 33.2617C621.08 33.2617 621.715 33.5791 622.268 34.2139C622.838 34.8324 623.122 35.6299 623.122 36.6064C623.122 37.6807 622.577 38.8363 621.487 40.0732C620.396 41.3265 619.403 41.9531 618.508 41.9531C616.799 41.9531 615.538 41.416 614.724 40.3418C613.926 39.2839 613.43 38.0143 613.235 36.5332C613.056 35.0358 612.966 33.099 612.966 30.7227L613.284 17.417C613.284 16.0824 613.243 14.707 613.161 13.291C608.881 21.8197 606.301 27.9557 605.422 31.6992L604.006 31.7969C602.606 28.7207 600.873 25.1562 598.806 21.1035C596.739 17.0508 595.412 13.9014 594.827 11.6553C594.615 14.2269 594.509 17.2217 594.509 20.6396C594.509 26.2874 594.81 32.2933 595.412 38.6572C596.568 38.6572 598.106 38.7549 600.027 38.9502L599.856 39.9023C593.02 39.6908 589.504 39.5605 589.309 39.5117L589.407 38.291C591.555 38.584 593.191 38.7061 594.314 38.6572C593.028 30.4704 592.442 20.8024 592.556 9.65332C589.903 9.65332 588.064 9.72656 587.038 9.87305C586.029 10.0195 585.191 10.459 584.524 11.1914C583.856 11.9238 583.523 12.8923 583.523 14.0967C583.523 14.9919 583.856 15.7243 584.524 16.2939C585.207 16.8636 585.956 17.1484 586.77 17.1484C587.242 17.1484 587.673 17.0264 588.064 16.7822C588.471 16.5381 588.674 16.2614 588.674 15.9521C588.674 15.7731 588.568 15.5697 588.357 15.3418C588.145 15.1139 587.966 15 587.82 15C587.038 15 586.371 15.3174 585.818 15.9521C585.476 15.7243 585.305 15.4557 585.305 15.1465C585.305 14.7233 585.509 14.3571 585.915 14.0479C586.339 13.7223 586.705 13.5596 587.014 13.5596C587.584 13.5596 588.186 13.8037 588.821 14.292C589.455 14.764 589.773 15.2848 589.773 15.8545C589.773 16.6195 589.472 17.3193 588.87 17.9541C588.284 18.5889 587.649 18.9062 586.965 18.9062C585.875 18.9062 584.898 18.4505 584.036 17.5391C583.189 16.6276 582.766 15.3825 582.766 13.8037C582.766 12.5667 583.279 11.4193 584.304 10.3613C585.329 9.28711 586.534 8.75 587.917 8.75C589.122 8.75 590.88 8.6849 593.191 8.55469C595.502 8.4082 597.097 8.25358 597.976 8.09082L598.318 9.14062C597.113 9.28711 596.21 9.36035 595.608 9.36035C597.187 14.0316 600.507 19.9154 605.569 27.0117C607.538 22.1126 609.109 18.4587 610.281 16.0498C611.469 13.641 612.445 11.3379 613.21 9.14062C612.966 9.07552 611.851 8.89648 609.866 8.60352L610.159 7.60254C610.712 7.78158 612.372 8.04199 615.139 8.38379C617.922 8.70931 620.282 8.91276 622.219 8.99414L621.975 10.0439C620.754 10.0439 619.135 9.89746 617.117 9.60449C616.986 10.1742 616.612 13.8932 615.994 20.7617C615.375 27.6139 615.066 32.6595 615.066 35.8984C615.066 39.4303 616.018 41.1963 617.922 41.1963C618.85 41.1963 619.648 40.8057 620.315 40.0244C620.982 39.2594 621.316 38.2992 621.316 37.1436C621.316 35.0114 620.803 33.9453 619.778 33.9453C619.42 33.9453 619.037 34.1162 618.63 34.458C618.223 34.7835 618.02 35.1497 618.02 35.5566C618.02 36.0938 618.15 36.582 618.411 37.0215C618.671 37.4447 618.956 37.6562 619.265 37.6562C619.704 37.6562 619.924 37.2412 619.924 36.4111ZM641.375 17.002C641.115 17.3926 640.781 17.5879 640.374 17.5879C640.097 17.5879 639.829 17.3763 639.568 16.9531C639.308 16.5299 639.178 16.1637 639.178 15.8545C639.178 15.4964 639.406 15.0977 639.861 14.6582C640.333 14.2188 640.822 13.999 641.326 13.999C641.814 13.999 642.343 14.3164 642.913 14.9512C643.483 15.5859 643.768 16.1719 643.768 16.709C643.768 17.946 643.369 18.9876 642.571 19.834C641.79 20.6803 640.952 21.1035 640.057 21.1035C639.031 21.1035 638.136 20.6396 637.371 19.7119C636.606 18.7679 636.224 17.7344 636.224 16.6113C636.224 15 637.005 13.4701 638.567 12.0215C640.13 10.5729 642.083 9.84863 644.427 9.84863C647.877 9.84863 650.978 11.2891 653.729 14.1699C656.479 17.0508 657.854 20.1921 657.854 23.5938C657.854 27.8743 656.365 31.7562 653.387 35.2393C650.408 38.7061 646.966 40.4395 643.06 40.4395C638.551 40.4395 634.726 38.9583 631.585 35.9961C628.444 33.0176 626.873 29.502 626.873 25.4492C626.873 21.5104 628.134 17.9215 630.657 14.6826C633.196 11.4437 636.313 9.36849 640.008 8.45703L640.325 9.18945C637.33 9.77539 634.922 11.5332 633.099 14.4629C631.276 17.3926 630.364 20.835 630.364 24.79C630.364 28.9404 631.593 32.4479 634.051 35.3125C636.508 38.1771 639.65 39.6094 643.475 39.6094C646.567 39.6094 649.114 38.0957 651.116 35.0684C653.118 32.041 654.119 28.5498 654.119 24.5947C654.119 20.6722 653.151 17.4333 651.214 14.8779C649.277 12.3226 646.779 11.0449 643.719 11.0449C641.847 11.0449 640.268 11.6227 638.982 12.7783C637.713 13.9176 637.078 15.1709 637.078 16.5381C637.078 17.2705 637.379 17.8809 637.981 18.3691C638.584 18.8574 639.21 19.1016 639.861 19.1016C640.691 19.1016 641.399 18.9062 641.985 18.5156C642.571 18.1087 642.864 17.6204 642.864 17.0508C642.864 16.5788 642.693 16.1882 642.352 15.8789C642.01 15.5534 641.635 15.3906 641.229 15.3906C640.285 15.3906 639.812 15.5452 639.812 15.8545C639.812 16.1312 640.333 16.5137 641.375 17.002ZM702.016 9.23828C700.259 9.61263 698.81 10.4427 697.671 11.7285C696.531 12.998 695.962 14.4059 695.962 15.9521C695.962 17.596 696.385 19.1423 697.231 20.5908C698.094 22.0231 699.193 22.7393 700.527 22.7393C702.171 22.7393 703.457 22.1452 704.385 20.957C705.312 19.7689 705.776 18.2308 705.776 16.3428C705.776 15.1383 705.467 14.1211 704.848 13.291C704.23 12.4609 703.4 12.0459 702.358 12.0459C701.772 12.0459 701.317 12.3307 700.991 12.9004C700.682 13.4701 700.527 14.1699 700.527 15C700.527 15.9928 700.845 16.4893 701.479 16.4893C701.805 16.4893 702.033 16.4404 702.163 16.3428C702.293 16.2288 702.358 15.9847 702.358 15.6104C702.358 15.415 702.326 15.1465 702.261 14.8047C702.195 14.4629 702.163 14.2106 702.163 14.0479C702.163 13.6572 702.261 13.4619 702.456 13.4619C702.879 13.4619 703.229 13.5921 703.506 13.8525C703.782 14.113 703.921 14.4629 703.921 14.9023C703.921 15.5046 703.677 16.0498 703.188 16.5381C702.7 17.0101 702.163 17.2461 701.577 17.2461C700.926 17.2461 700.316 17.0426 699.746 16.6357C699.193 16.2288 698.916 15.7324 698.916 15.1465C698.916 14.1211 699.347 13.1934 700.21 12.3633C701.089 11.5169 702.041 11.0938 703.066 11.0938C704.401 11.0938 705.613 11.5983 706.704 12.6074C707.811 13.6165 708.364 14.764 708.364 16.0498C708.364 17.0915 708.144 18.0762 707.705 19.0039C707.265 19.9154 706.655 20.721 705.874 21.4209C705.093 22.1045 704.344 22.6253 703.628 22.9834C702.912 23.3252 701.878 23.4961 700.527 23.4961C698.769 23.4961 697.166 22.7555 695.718 21.2744C694.285 19.777 693.569 18.1494 693.569 16.3916C693.569 14.6175 694.391 12.9492 696.035 11.3867C697.695 9.80794 699.591 8.88021 701.723 8.60352L702.016 9.23828ZM743.453 4.89258C743.355 4.72982 743.307 4.55892 743.307 4.37988C743.307 4.07064 743.437 3.80208 743.697 3.57422C743.974 3.33008 744.259 3.20801 744.552 3.20801C745.105 3.20801 745.602 3.41146 746.041 3.81836C746.48 4.20898 746.7 4.59961 746.7 4.99023C746.7 5.75521 746.358 6.4388 745.675 7.04102C745.007 7.64323 744.218 7.94434 743.307 7.94434C742.33 7.94434 741.484 7.61882 740.768 6.96777C740.068 6.30046 739.718 5.51107 739.718 4.59961C739.718 3.70443 740.271 2.8418 741.378 2.01172C742.501 1.16536 743.844 0.742188 745.406 0.742188C746.985 0.742188 748.442 1.20605 749.776 2.13379C751.127 3.06152 751.803 4.18457 751.803 5.50293C751.803 7.60254 750.932 9.18945 749.19 10.2637C747.465 11.3216 744.308 12.1029 739.718 12.6074C739.848 16.4323 739.913 19.6631 739.913 22.2998C739.913 25.7178 739.758 31.1702 739.449 38.6572C742.07 38.6572 744.194 38.3236 745.821 37.6562V39.1943C743.526 39.5361 741.142 39.7396 738.668 39.8047C737.822 39.8372 736.633 40.0163 735.104 40.3418V38.999L738.155 38.8037C738.155 35.5322 737.895 31.0645 737.374 25.4004C736.853 19.7201 736.267 15.6348 735.616 13.1445C733.549 13.5677 730.481 13.9827 726.412 14.3896L726.754 19.0039L725.46 19.1504C725.346 16.2533 725.11 14.0397 724.752 12.5098L726.021 12.29L726.217 13.291C730.693 12.9004 734.973 12.3389 739.059 11.6064C743.144 10.874 745.903 10.0358 747.335 9.0918C748.784 8.13151 749.508 6.76432 749.508 4.99023C749.508 3.96484 749.125 3.11849 748.36 2.45117C747.612 1.78385 746.594 1.4502 745.309 1.4502C744.397 1.4502 743.535 1.77572 742.721 2.42676C741.907 3.06152 741.5 3.78581 741.5 4.59961C741.5 5.23438 741.703 5.83659 742.11 6.40625C742.534 6.97591 743.014 7.26074 743.551 7.26074C744.137 7.26074 744.601 7.08984 744.942 6.74805C745.284 6.40625 745.455 5.99121 745.455 5.50293C745.455 5.25879 745.366 5.01465 745.187 4.77051C745.007 4.52637 744.78 4.4043 744.503 4.4043C744.259 4.4043 743.909 4.56706 743.453 4.89258ZM770.934 33.5059C771.667 33.7012 772.033 34.0023 772.033 34.4092C772.033 35.0114 771.87 35.5404 771.545 35.9961C771.219 36.4355 770.796 36.6553 770.275 36.6553C769.705 36.6553 769.225 36.403 768.835 35.8984C768.46 35.3939 768.273 34.8405 768.273 34.2383C768.273 33.3105 768.696 32.4154 769.543 31.5527C770.405 30.6901 771.154 30.2588 771.789 30.2588C773.205 30.2588 774.32 30.5599 775.133 31.1621C775.964 31.748 776.379 32.6107 776.379 33.75C776.379 34.6777 776.069 35.6868 775.451 36.7773C774.849 37.8516 774.149 38.7142 773.351 39.3652C772.57 40.0163 771.789 40.415 771.007 40.5615C770.226 40.7243 769.119 40.8057 767.687 40.8057C767.052 40.8057 765.62 40.6592 763.39 40.3662C761.16 40.0895 759.37 39.9512 758.019 39.9512C757.059 39.9512 755.708 40.1139 753.966 40.4395V39.1455L756.774 38.9502C756.253 32.1143 755.7 26.7594 755.114 22.8857C754.544 19.012 753.665 14.8128 752.477 10.2881L749.865 10.5078V9.23828C755.448 9.05924 760.436 8.53027 764.831 7.65137L770.324 6.55273C769.754 9.61263 769.534 12.2982 769.665 14.6094H768.468L768.615 9.0918L757.238 9.84863C757.759 17.3519 758.019 22.487 758.019 25.2539C762.788 25.0423 766.556 24.4564 769.323 23.4961V25.4492C765.921 26.1165 762.153 26.499 758.019 26.5967C758.084 28.2568 758.117 30.3971 758.117 33.0176C758.117 34.9382 758.101 36.8831 758.068 38.8525L767.565 39.1455C770.495 39.1455 772.358 38.8118 773.156 38.1445C773.97 37.4772 774.377 36.4762 774.377 35.1416C774.377 32.8467 773.213 31.6992 770.885 31.6992C770.544 31.6992 770.186 31.9108 769.811 32.334C769.453 32.7409 769.274 33.2292 769.274 33.7988C769.274 34.2057 769.445 34.5312 769.787 34.7754C770.129 35.0195 770.438 35.1416 770.714 35.1416C771.056 35.1416 771.227 34.9626 771.227 34.6045C771.227 34.2627 771.056 33.9941 770.714 33.7988L770.934 33.5059ZM824.016 39.4385C822.535 40.1546 820.493 40.6266 817.888 40.8545C816.798 36.1019 816.131 31.1865 815.887 26.1084C815.203 26.1735 814.096 26.2061 812.566 26.2061C809.978 26.2061 807.749 26.0514 805.877 25.7422C804.998 30.332 803.728 33.8477 802.068 36.2891C800.424 38.7305 798.479 39.9512 796.233 39.9512C795.11 39.9512 794.109 39.4222 793.23 38.3643C792.368 37.29 791.936 36.1507 791.936 34.9463C791.936 33.9697 792.327 32.9199 793.108 31.7969C793.889 30.6576 794.728 30.0879 795.623 30.0879C796.095 30.0879 796.567 30.3483 797.039 30.8691C797.527 31.3737 797.771 31.8701 797.771 32.3584C797.771 32.9281 797.6 33.5221 797.259 34.1406C796.917 34.7428 796.51 35.0439 796.038 35.0439C795.973 35.0439 795.851 34.9951 795.672 34.8975C796.144 34.5394 796.38 34.0918 796.38 33.5547C796.38 33.2129 796.258 32.8792 796.013 32.5537C795.769 32.2119 795.493 32.041 795.183 32.041C793.653 32.041 792.888 32.7246 792.888 34.0918C792.888 35.3451 793.23 36.2728 793.914 36.875C794.597 37.4609 795.753 37.7539 797.381 37.7539C799.708 37.7539 801.319 36.3949 802.215 33.6768C803.126 30.9424 803.582 28.1185 803.582 25.2051C798.113 23.9681 795.379 22.0964 795.379 19.5898C795.379 18.8737 795.598 18.2227 796.038 17.6367C796.494 17.0508 797.039 16.7578 797.674 16.7578H798.186C797.617 17.4414 797.332 18.2227 797.332 19.1016C797.332 20.3385 797.885 21.4128 798.992 22.3242C800.099 23.2357 801.612 23.9111 803.533 24.3506C803.435 23.0973 803.387 21.8441 803.387 20.5908C803.387 18.0843 803.704 16.0173 804.339 14.3896C804.973 12.7458 806.04 11.2891 807.537 10.0195C809.034 8.73372 810.719 7.78158 812.591 7.16309C814.462 6.52832 816.375 6.21094 818.328 6.21094C819.5 6.21094 820.183 6.22721 820.379 6.25977C818.946 12.9329 818.149 18.8493 817.986 24.0088C818.279 23.9437 818.727 23.8053 819.329 23.5938L819.427 25.7422C818.727 25.8073 818.247 25.8561 817.986 25.8887V27.6465C817.986 32.8223 818.304 36.7367 818.938 39.3896C820.143 39.3571 821.738 38.9421 823.723 38.1445L824.016 39.4385ZM816.668 7.40723C813.885 7.30957 811.59 8.2373 809.783 10.1904C807.993 12.1436 806.837 16.2288 806.316 22.4463C806.235 23.5368 806.153 24.318 806.072 24.79C807.423 24.9365 808.489 25.0098 809.27 25.0098C811.012 25.0098 813.185 24.8226 815.789 24.4482C815.707 22.5114 815.667 20.9977 815.667 19.9072C815.667 15.4801 816 11.3135 816.668 7.40723ZM861.385 36.4111C861.808 36.5576 862.02 36.8018 862.02 37.1436C862.02 37.9411 861.458 38.3398 860.335 38.3398C859.831 38.3398 859.31 38.112 858.773 37.6562C858.236 37.2005 857.967 36.7285 857.967 36.2402C857.967 35.5241 858.374 34.8486 859.188 34.2139C860.002 33.5791 860.881 33.2617 861.825 33.2617C862.541 33.2617 863.175 33.5791 863.729 34.2139C864.299 34.8324 864.583 35.6299 864.583 36.6064C864.583 37.6807 864.038 38.8363 862.948 40.0732C861.857 41.3265 860.864 41.9531 859.969 41.9531C858.26 41.9531 856.999 41.416 856.185 40.3418C855.387 39.2839 854.891 38.0143 854.696 36.5332C854.517 35.0358 854.427 33.099 854.427 30.7227L854.745 17.417C854.745 16.0824 854.704 14.707 854.622 13.291C850.342 21.8197 847.762 27.9557 846.883 31.6992L845.467 31.7969C844.067 28.7207 842.334 25.1562 840.267 21.1035C838.2 17.0508 836.873 13.9014 836.287 11.6553C836.076 14.2269 835.97 17.2217 835.97 20.6396C835.97 26.2874 836.271 32.2933 836.873 38.6572C838.029 38.6572 839.567 38.7549 841.488 38.9502L841.317 39.9023C834.481 39.6908 830.965 39.5605 830.77 39.5117L830.868 38.291C833.016 38.584 834.652 38.7061 835.775 38.6572C834.489 30.4704 833.903 20.8024 834.017 9.65332C831.364 9.65332 829.525 9.72656 828.499 9.87305C827.49 10.0195 826.652 10.459 825.985 11.1914C825.317 11.9238 824.984 12.8923 824.984 14.0967C824.984 14.9919 825.317 15.7243 825.985 16.2939C826.668 16.8636 827.417 17.1484 828.231 17.1484C828.703 17.1484 829.134 17.0264 829.525 16.7822C829.932 16.5381 830.135 16.2614 830.135 15.9521C830.135 15.7731 830.029 15.5697 829.818 15.3418C829.606 15.1139 829.427 15 829.281 15C828.499 15 827.832 15.3174 827.279 15.9521C826.937 15.7243 826.766 15.4557 826.766 15.1465C826.766 14.7233 826.969 14.3571 827.376 14.0479C827.8 13.7223 828.166 13.5596 828.475 13.5596C829.045 13.5596 829.647 13.8037 830.282 14.292C830.916 14.764 831.234 15.2848 831.234 15.8545C831.234 16.6195 830.933 17.3193 830.33 17.9541C829.745 18.5889 829.11 18.9062 828.426 18.9062C827.336 18.9062 826.359 18.4505 825.496 17.5391C824.65 16.6276 824.227 15.3825 824.227 13.8037C824.227 12.5667 824.74 11.4193 825.765 10.3613C826.79 9.28711 827.995 8.75 829.378 8.75C830.583 8.75 832.341 8.6849 834.652 8.55469C836.963 8.4082 838.558 8.25358 839.437 8.09082L839.779 9.14062C838.574 9.28711 837.671 9.36035 837.069 9.36035C838.648 14.0316 841.968 19.9154 847.03 27.0117C848.999 22.1126 850.57 18.4587 851.742 16.0498C852.93 13.641 853.906 11.3379 854.671 9.14062C854.427 9.07552 853.312 8.89648 851.327 8.60352L851.62 7.60254C852.173 7.78158 853.833 8.04199 856.6 8.38379C859.383 8.70931 861.743 8.91276 863.68 8.99414L863.436 10.0439C862.215 10.0439 860.596 9.89746 858.578 9.60449C858.447 10.1742 858.073 13.8932 857.454 20.7617C856.836 27.6139 856.527 32.6595 856.527 35.8984C856.527 39.4303 857.479 41.1963 859.383 41.1963C860.311 41.1963 861.108 40.8057 861.776 40.0244C862.443 39.2594 862.777 38.2992 862.777 37.1436C862.777 35.0114 862.264 33.9453 861.239 33.9453C860.881 33.9453 860.498 34.1162 860.091 34.458C859.684 34.7835 859.481 35.1497 859.481 35.5566C859.481 36.0938 859.611 36.582 859.871 37.0215C860.132 37.4447 860.417 37.6562 860.726 37.6562C861.165 37.6562 861.385 37.2412 861.385 36.4111ZM882.836 17.002C882.576 17.3926 882.242 17.5879 881.835 17.5879C881.558 17.5879 881.29 17.3763 881.029 16.9531C880.769 16.5299 880.639 16.1637 880.639 15.8545C880.639 15.4964 880.867 15.0977 881.322 14.6582C881.794 14.2188 882.283 13.999 882.787 13.999C883.275 13.999 883.804 14.3164 884.374 14.9512C884.944 15.5859 885.229 16.1719 885.229 16.709C885.229 17.946 884.83 18.9876 884.032 19.834C883.251 20.6803 882.413 21.1035 881.518 21.1035C880.492 21.1035 879.597 20.6396 878.832 19.7119C878.067 18.7679 877.685 17.7344 877.685 16.6113C877.685 15 878.466 13.4701 880.028 12.0215C881.591 10.5729 883.544 9.84863 885.888 9.84863C889.338 9.84863 892.439 11.2891 895.189 14.1699C897.94 17.0508 899.315 20.1921 899.315 23.5938C899.315 27.8743 897.826 31.7562 894.848 35.2393C891.869 38.7061 888.427 40.4395 884.521 40.4395C880.012 40.4395 876.187 38.9583 873.046 35.9961C869.905 33.0176 868.334 29.502 868.334 25.4492C868.334 21.5104 869.595 17.9215 872.118 14.6826C874.657 11.4437 877.774 9.36849 881.469 8.45703L881.786 9.18945C878.791 9.77539 876.382 11.5332 874.56 14.4629C872.737 17.3926 871.825 20.835 871.825 24.79C871.825 28.9404 873.054 32.4479 875.512 35.3125C877.969 38.1771 881.111 39.6094 884.936 39.6094C888.028 39.6094 890.575 38.0957 892.577 35.0684C894.579 32.041 895.58 28.5498 895.58 24.5947C895.58 20.6722 894.612 17.4333 892.675 14.8779C890.738 12.3226 888.24 11.0449 885.18 11.0449C883.308 11.0449 881.729 11.6227 880.443 12.7783C879.174 13.9176 878.539 15.1709 878.539 16.5381C878.539 17.2705 878.84 17.8809 879.442 18.3691C880.045 18.8574 880.671 19.1016 881.322 19.1016C882.152 19.1016 882.86 18.9062 883.446 18.5156C884.032 18.1087 884.325 17.6204 884.325 17.0508C884.325 16.5788 884.154 16.1882 883.812 15.8789C883.471 15.5534 883.096 15.3906 882.689 15.3906C881.745 15.3906 881.273 15.5452 881.273 15.8545C881.273 16.1312 881.794 16.5137 882.836 17.002ZM943.477 9.23828C941.72 9.61263 940.271 10.4427 939.132 11.7285C937.992 12.998 937.423 14.4059 937.423 15.9521C937.423 17.596 937.846 19.1423 938.692 20.5908C939.555 22.0231 940.653 22.7393 941.988 22.7393C943.632 22.7393 944.918 22.1452 945.846 20.957C946.773 19.7689 947.237 18.2308 947.237 16.3428C947.237 15.1383 946.928 14.1211 946.309 13.291C945.691 12.4609 944.861 12.0459 943.819 12.0459C943.233 12.0459 942.777 12.3307 942.452 12.9004C942.143 13.4701 941.988 14.1699 941.988 15C941.988 15.9928 942.305 16.4893 942.94 16.4893C943.266 16.4893 943.494 16.4404 943.624 16.3428C943.754 16.2288 943.819 15.9847 943.819 15.6104C943.819 15.415 943.787 15.1465 943.721 14.8047C943.656 14.4629 943.624 14.2106 943.624 14.0479C943.624 13.6572 943.721 13.4619 943.917 13.4619C944.34 13.4619 944.69 13.5921 944.967 13.8525C945.243 14.113 945.382 14.4629 945.382 14.9023C945.382 15.5046 945.138 16.0498 944.649 16.5381C944.161 17.0101 943.624 17.2461 943.038 17.2461C942.387 17.2461 941.777 17.0426 941.207 16.6357C940.653 16.2288 940.377 15.7324 940.377 15.1465C940.377 14.1211 940.808 13.1934 941.671 12.3633C942.55 11.5169 943.502 11.0938 944.527 11.0938C945.862 11.0938 947.074 11.5983 948.165 12.6074C949.272 13.6165 949.825 14.764 949.825 16.0498C949.825 17.0915 949.605 18.0762 949.166 19.0039C948.726 19.9154 948.116 20.721 947.335 21.4209C946.554 22.1045 945.805 22.6253 945.089 22.9834C944.373 23.3252 943.339 23.4961 941.988 23.4961C940.23 23.4961 938.627 22.7555 937.179 21.2744C935.746 19.777 935.03 18.1494 935.03 16.3916C935.03 14.6175 935.852 12.9492 937.496 11.3867C939.156 9.80794 941.052 8.88021 943.184 8.60352L943.477 9.23828ZM984.914 4.89258C984.816 4.72982 984.768 4.55892 984.768 4.37988C984.768 4.07064 984.898 3.80208 985.158 3.57422C985.435 3.33008 985.72 3.20801 986.013 3.20801C986.566 3.20801 987.062 3.41146 987.502 3.81836C987.941 4.20898 988.161 4.59961 988.161 4.99023C988.161 5.75521 987.819 6.4388 987.136 7.04102C986.468 7.64323 985.679 7.94434 984.768 7.94434C983.791 7.94434 982.945 7.61882 982.229 6.96777C981.529 6.30046 981.179 5.51107 981.179 4.59961C981.179 3.70443 981.732 2.8418 982.839 2.01172C983.962 1.16536 985.305 0.742188 986.867 0.742188C988.446 0.742188 989.903 1.20605 991.237 2.13379C992.588 3.06152 993.264 4.18457 993.264 5.50293C993.264 7.60254 992.393 9.18945 990.651 10.2637C988.926 11.3216 985.769 12.1029 981.179 12.6074C981.309 16.4323 981.374 19.6631 981.374 22.2998C981.374 25.7178 981.219 31.1702 980.91 38.6572C983.531 38.6572 985.655 38.3236 987.282 37.6562V39.1943C984.987 39.5361 982.603 39.7396 980.129 39.8047C979.283 39.8372 978.094 40.0163 976.564 40.3418V38.999L979.616 38.8037C979.616 35.5322 979.356 31.0645 978.835 25.4004C978.314 19.7201 977.728 15.6348 977.077 13.1445C975.01 13.5677 971.942 13.9827 967.873 14.3896L968.215 19.0039L966.921 19.1504C966.807 16.2533 966.571 14.0397 966.213 12.5098L967.482 12.29L967.678 13.291C972.154 12.9004 976.434 12.3389 980.52 11.6064C984.605 10.874 987.364 10.0358 988.796 9.0918C990.244 8.13151 990.969 6.76432 990.969 4.99023C990.969 3.96484 990.586 3.11849 989.821 2.45117C989.073 1.78385 988.055 1.4502 986.77 1.4502C985.858 1.4502 984.995 1.77572 984.182 2.42676C983.368 3.06152 982.961 3.78581 982.961 4.59961C982.961 5.23438 983.164 5.83659 983.571 6.40625C983.994 6.97591 984.475 7.26074 985.012 7.26074C985.598 7.26074 986.062 7.08984 986.403 6.74805C986.745 6.40625 986.916 5.99121 986.916 5.50293C986.916 5.25879 986.826 5.01465 986.647 4.77051C986.468 4.52637 986.241 4.4043 985.964 4.4043C985.72 4.4043 985.37 4.56706 984.914 4.89258ZM1012.4 33.5059C1013.13 33.7012 1013.49 34.0023 1013.49 34.4092C1013.49 35.0114 1013.33 35.5404 1013.01 35.9961C1012.68 36.4355 1012.26 36.6553 1011.74 36.6553C1011.17 36.6553 1010.69 36.403 1010.3 35.8984C1009.92 35.3939 1009.73 34.8405 1009.73 34.2383C1009.73 33.3105 1010.16 32.4154 1011 31.5527C1011.87 30.6901 1012.61 30.2588 1013.25 30.2588C1014.67 30.2588 1015.78 30.5599 1016.59 31.1621C1017.42 31.748 1017.84 32.6107 1017.84 33.75C1017.84 34.6777 1017.53 35.6868 1016.91 36.7773C1016.31 37.8516 1015.61 38.7142 1014.81 39.3652C1014.03 40.0163 1013.25 40.415 1012.47 40.5615C1011.69 40.7243 1010.58 40.8057 1009.15 40.8057C1008.51 40.8057 1007.08 40.6592 1004.85 40.3662C1002.62 40.0895 1000.83 39.9512 999.48 39.9512C998.52 39.9512 997.169 40.1139 995.427 40.4395V39.1455L998.235 38.9502C997.714 32.1143 997.161 26.7594 996.575 22.8857C996.005 19.012 995.126 14.8128 993.938 10.2881L991.326 10.5078V9.23828C996.908 9.05924 1001.9 8.53027 1006.29 7.65137L1011.78 6.55273C1011.22 9.61263 1011 12.2982 1011.13 14.6094H1009.93L1010.08 9.0918L998.699 9.84863C999.22 17.3519 999.48 22.487 999.48 25.2539C1004.25 25.0423 1008.02 24.4564 1010.78 23.4961V25.4492C1007.38 26.1165 1003.61 26.499 999.48 26.5967C999.545 28.2568 999.578 30.3971 999.578 33.0176C999.578 34.9382 999.561 36.8831 999.529 38.8525L1009.03 39.1455C1011.96 39.1455 1013.82 38.8118 1014.62 38.1445C1015.43 37.4772 1015.84 36.4762 1015.84 35.1416C1015.84 32.8467 1014.67 31.6992 1012.35 31.6992C1012 31.6992 1011.65 31.9108 1011.27 32.334C1010.91 32.7409 1010.73 33.2292 1010.73 33.7988C1010.73 34.2057 1010.91 34.5312 1011.25 34.7754C1011.59 35.0195 1011.9 35.1416 1012.18 35.1416C1012.52 35.1416 1012.69 34.9626 1012.69 34.6045C1012.69 34.2627 1012.52 33.9941 1012.18 33.7988L1012.4 33.5059ZM1065.48 39.4385C1064 40.1546 1061.95 40.6266 1059.35 40.8545C1058.26 36.1019 1057.59 31.1865 1057.35 26.1084C1056.66 26.1735 1055.56 26.2061 1054.03 26.2061C1051.44 26.2061 1049.21 26.0514 1047.34 25.7422C1046.46 30.332 1045.19 33.8477 1043.53 36.2891C1041.89 38.7305 1039.94 39.9512 1037.69 39.9512C1036.57 39.9512 1035.57 39.4222 1034.69 38.3643C1033.83 37.29 1033.4 36.1507 1033.4 34.9463C1033.4 33.9697 1033.79 32.9199 1034.57 31.7969C1035.35 30.6576 1036.19 30.0879 1037.08 30.0879C1037.56 30.0879 1038.03 30.3483 1038.5 30.8691C1038.99 31.3737 1039.23 31.8701 1039.23 32.3584C1039.23 32.9281 1039.06 33.5221 1038.72 34.1406C1038.38 34.7428 1037.97 35.0439 1037.5 35.0439C1037.43 35.0439 1037.31 34.9951 1037.13 34.8975C1037.6 34.5394 1037.84 34.0918 1037.84 33.5547C1037.84 33.2129 1037.72 32.8792 1037.47 32.5537C1037.23 32.2119 1036.95 32.041 1036.64 32.041C1035.11 32.041 1034.35 32.7246 1034.35 34.0918C1034.35 35.3451 1034.69 36.2728 1035.37 36.875C1036.06 37.4609 1037.21 37.7539 1038.84 37.7539C1041.17 37.7539 1042.78 36.3949 1043.68 33.6768C1044.59 30.9424 1045.04 28.1185 1045.04 25.2051C1039.57 23.9681 1036.84 22.0964 1036.84 19.5898C1036.84 18.8737 1037.06 18.2227 1037.5 17.6367C1037.95 17.0508 1038.5 16.7578 1039.13 16.7578H1039.65C1039.08 17.4414 1038.79 18.2227 1038.79 19.1016C1038.79 20.3385 1039.35 21.4128 1040.45 22.3242C1041.56 23.2357 1043.07 23.9111 1044.99 24.3506C1044.9 23.0973 1044.85 21.8441 1044.85 20.5908C1044.85 18.0843 1045.16 16.0173 1045.8 14.3896C1046.43 12.7458 1047.5 11.2891 1049 10.0195C1050.5 8.73372 1052.18 7.78158 1054.05 7.16309C1055.92 6.52832 1057.84 6.21094 1059.79 6.21094C1060.96 6.21094 1061.64 6.22721 1061.84 6.25977C1060.41 12.9329 1059.61 18.8493 1059.45 24.0088C1059.74 23.9437 1060.19 23.8053 1060.79 23.5938L1060.89 25.7422C1060.19 25.8073 1059.71 25.8561 1059.45 25.8887V27.6465C1059.45 32.8223 1059.76 36.7367 1060.4 39.3896C1061.6 39.3571 1063.2 38.9421 1065.18 38.1445L1065.48 39.4385ZM1058.13 7.40723C1055.35 7.30957 1053.05 8.2373 1051.24 10.1904C1049.45 12.1436 1048.3 16.2288 1047.78 22.4463C1047.7 23.5368 1047.61 24.318 1047.53 24.79C1048.88 24.9365 1049.95 25.0098 1050.73 25.0098C1052.47 25.0098 1054.65 24.8226 1057.25 24.4482C1057.17 22.5114 1057.13 20.9977 1057.13 19.9072C1057.13 15.4801 1057.46 11.3135 1058.13 7.40723ZM1102.85 36.4111C1103.27 36.5576 1103.48 36.8018 1103.48 37.1436C1103.48 37.9411 1102.92 38.3398 1101.8 38.3398C1101.29 38.3398 1100.77 38.112 1100.23 37.6562C1099.7 37.2005 1099.43 36.7285 1099.43 36.2402C1099.43 35.5241 1099.84 34.8486 1100.65 34.2139C1101.46 33.5791 1102.34 33.2617 1103.29 33.2617C1104 33.2617 1104.64 33.5791 1105.19 34.2139C1105.76 34.8324 1106.04 35.6299 1106.04 36.6064C1106.04 37.6807 1105.5 38.8363 1104.41 40.0732C1103.32 41.3265 1102.33 41.9531 1101.43 41.9531C1099.72 41.9531 1098.46 41.416 1097.65 40.3418C1096.85 39.2839 1096.35 38.0143 1096.16 36.5332C1095.98 35.0358 1095.89 33.099 1095.89 30.7227L1096.21 17.417C1096.21 16.0824 1096.16 14.707 1096.08 13.291C1091.8 21.8197 1089.22 27.9557 1088.34 31.6992L1086.93 31.7969C1085.53 28.7207 1083.79 25.1562 1081.73 21.1035C1079.66 17.0508 1078.33 13.9014 1077.75 11.6553C1077.54 14.2269 1077.43 17.2217 1077.43 20.6396C1077.43 26.2874 1077.73 32.2933 1078.33 38.6572C1079.49 38.6572 1081.03 38.7549 1082.95 38.9502L1082.78 39.9023C1075.94 39.6908 1072.43 39.5605 1072.23 39.5117L1072.33 38.291C1074.48 38.584 1076.11 38.7061 1077.24 38.6572C1075.95 30.4704 1075.36 20.8024 1075.48 9.65332C1072.82 9.65332 1070.99 9.72656 1069.96 9.87305C1068.95 10.0195 1068.11 10.459 1067.45 11.1914C1066.78 11.9238 1066.44 12.8923 1066.44 14.0967C1066.44 14.9919 1066.78 15.7243 1067.45 16.2939C1068.13 16.8636 1068.88 17.1484 1069.69 17.1484C1070.16 17.1484 1070.6 17.0264 1070.99 16.7822C1071.39 16.5381 1071.6 16.2614 1071.6 15.9521C1071.6 15.7731 1071.49 15.5697 1071.28 15.3418C1071.07 15.1139 1070.89 15 1070.74 15C1069.96 15 1069.29 15.3174 1068.74 15.9521C1068.4 15.7243 1068.23 15.4557 1068.23 15.1465C1068.23 14.7233 1068.43 14.3571 1068.84 14.0479C1069.26 13.7223 1069.63 13.5596 1069.94 13.5596C1070.51 13.5596 1071.11 13.8037 1071.74 14.292C1072.38 14.764 1072.69 15.2848 1072.69 15.8545C1072.69 16.6195 1072.39 17.3193 1071.79 17.9541C1071.21 18.5889 1070.57 18.9062 1069.89 18.9062C1068.8 18.9062 1067.82 18.4505 1066.96 17.5391C1066.11 16.6276 1065.69 15.3825 1065.69 13.8037C1065.69 12.5667 1066.2 11.4193 1067.23 10.3613C1068.25 9.28711 1069.46 8.75 1070.84 8.75C1072.04 8.75 1073.8 8.6849 1076.11 8.55469C1078.42 8.4082 1080.02 8.25358 1080.9 8.09082L1081.24 9.14062C1080.04 9.28711 1079.13 9.36035 1078.53 9.36035C1080.11 14.0316 1083.43 19.9154 1088.49 27.0117C1090.46 22.1126 1092.03 18.4587 1093.2 16.0498C1094.39 13.641 1095.37 11.3379 1096.13 9.14062C1095.89 9.07552 1094.77 8.89648 1092.79 8.60352L1093.08 7.60254C1093.63 7.78158 1095.29 8.04199 1098.06 8.38379C1100.84 8.70931 1103.2 8.91276 1105.14 8.99414L1104.9 10.0439C1103.68 10.0439 1102.06 9.89746 1100.04 9.60449C1099.91 10.1742 1099.53 13.8932 1098.92 20.7617C1098.3 27.6139 1097.99 32.6595 1097.99 35.8984C1097.99 39.4303 1098.94 41.1963 1100.84 41.1963C1101.77 41.1963 1102.57 40.8057 1103.24 40.0244C1103.9 39.2594 1104.24 38.2992 1104.24 37.1436C1104.24 35.0114 1103.72 33.9453 1102.7 33.9453C1102.34 33.9453 1101.96 34.1162 1101.55 34.458C1101.15 34.7835 1100.94 35.1497 1100.94 35.5566C1100.94 36.0938 1101.07 36.582 1101.33 37.0215C1101.59 37.4447 1101.88 37.6562 1102.19 37.6562C1102.63 37.6562 1102.85 37.2412 1102.85 36.4111ZM1124.3 17.002C1124.04 17.3926 1123.7 17.5879 1123.3 17.5879C1123.02 17.5879 1122.75 17.3763 1122.49 16.9531C1122.23 16.5299 1122.1 16.1637 1122.1 15.8545C1122.1 15.4964 1122.33 15.0977 1122.78 14.6582C1123.26 14.2188 1123.74 13.999 1124.25 13.999C1124.74 13.999 1125.27 14.3164 1125.83 14.9512C1126.4 15.5859 1126.69 16.1719 1126.69 16.709C1126.69 17.946 1126.29 18.9876 1125.49 19.834C1124.71 20.6803 1123.87 21.1035 1122.98 21.1035C1121.95 21.1035 1121.06 20.6396 1120.29 19.7119C1119.53 18.7679 1119.15 17.7344 1119.15 16.6113C1119.15 15 1119.93 13.4701 1121.49 12.0215C1123.05 10.5729 1125 9.84863 1127.35 9.84863C1130.8 9.84863 1133.9 11.2891 1136.65 14.1699C1139.4 17.0508 1140.78 20.1921 1140.78 23.5938C1140.78 27.8743 1139.29 31.7562 1136.31 35.2393C1133.33 38.7061 1129.89 40.4395 1125.98 40.4395C1121.47 40.4395 1117.65 38.9583 1114.51 35.9961C1111.37 33.0176 1109.79 29.502 1109.79 25.4492C1109.79 21.5104 1111.06 17.9215 1113.58 14.6826C1116.12 11.4437 1119.24 9.36849 1122.93 8.45703L1123.25 9.18945C1120.25 9.77539 1117.84 11.5332 1116.02 14.4629C1114.2 17.3926 1113.29 20.835 1113.29 24.79C1113.29 28.9404 1114.51 32.4479 1116.97 35.3125C1119.43 38.1771 1122.57 39.6094 1126.4 39.6094C1129.49 39.6094 1132.04 38.0957 1134.04 35.0684C1136.04 32.041 1137.04 28.5498 1137.04 24.5947C1137.04 20.6722 1136.07 17.4333 1134.14 14.8779C1132.2 12.3226 1129.7 11.0449 1126.64 11.0449C1124.77 11.0449 1123.19 11.6227 1121.9 12.7783C1120.63 13.9176 1120 15.1709 1120 16.5381C1120 17.2705 1120.3 17.8809 1120.9 18.3691C1121.51 18.8574 1122.13 19.1016 1122.78 19.1016C1123.61 19.1016 1124.32 18.9062 1124.91 18.5156C1125.49 18.1087 1125.79 17.6204 1125.79 17.0508C1125.79 16.5788 1125.62 16.1882 1125.27 15.8789C1124.93 15.5534 1124.56 15.3906 1124.15 15.3906C1123.21 15.3906 1122.73 15.5452 1122.73 15.8545C1122.73 16.1312 1123.26 16.5137 1124.3 17.002ZM1184.94 9.23828C1183.18 9.61263 1181.73 10.4427 1180.59 11.7285C1179.45 12.998 1178.88 14.4059 1178.88 15.9521C1178.88 17.596 1179.31 19.1423 1180.15 20.5908C1181.02 22.0231 1182.11 22.7393 1183.45 22.7393C1185.09 22.7393 1186.38 22.1452 1187.31 20.957C1188.23 19.7689 1188.7 18.2308 1188.7 16.3428C1188.7 15.1383 1188.39 14.1211 1187.77 13.291C1187.15 12.4609 1186.32 12.0459 1185.28 12.0459C1184.69 12.0459 1184.24 12.3307 1183.91 12.9004C1183.6 13.4701 1183.45 14.1699 1183.45 15C1183.45 15.9928 1183.77 16.4893 1184.4 16.4893C1184.73 16.4893 1184.95 16.4404 1185.08 16.3428C1185.21 16.2288 1185.28 15.9847 1185.28 15.6104C1185.28 15.415 1185.25 15.1465 1185.18 14.8047C1185.12 14.4629 1185.08 14.2106 1185.08 14.0479C1185.08 13.6572 1185.18 13.4619 1185.38 13.4619C1185.8 13.4619 1186.15 13.5921 1186.43 13.8525C1186.7 14.113 1186.84 14.4629 1186.84 14.9023C1186.84 15.5046 1186.6 16.0498 1186.11 16.5381C1185.62 17.0101 1185.08 17.2461 1184.5 17.2461C1183.85 17.2461 1183.24 17.0426 1182.67 16.6357C1182.11 16.2288 1181.84 15.7324 1181.84 15.1465C1181.84 14.1211 1182.27 13.1934 1183.13 12.3633C1184.01 11.5169 1184.96 11.0938 1185.99 11.0938C1187.32 11.0938 1188.54 11.5983 1189.63 12.6074C1190.73 13.6165 1191.29 14.764 1191.29 16.0498C1191.29 17.0915 1191.07 18.0762 1190.63 19.0039C1190.19 19.9154 1189.58 20.721 1188.8 21.4209C1188.01 22.1045 1187.27 22.6253 1186.55 22.9834C1185.83 23.3252 1184.8 23.4961 1183.45 23.4961C1181.69 23.4961 1180.09 22.7555 1178.64 21.2744C1177.21 19.777 1176.49 18.1494 1176.49 16.3916C1176.49 14.6175 1177.31 12.9492 1178.96 11.3867C1180.62 9.80794 1182.51 8.88021 1184.65 8.60352L1184.94 9.23828ZM1226.38 4.89258C1226.28 4.72982 1226.23 4.55892 1226.23 4.37988C1226.23 4.07064 1226.36 3.80208 1226.62 3.57422C1226.9 3.33008 1227.18 3.20801 1227.47 3.20801C1228.03 3.20801 1228.52 3.41146 1228.96 3.81836C1229.4 4.20898 1229.62 4.59961 1229.62 4.99023C1229.62 5.75521 1229.28 6.4388 1228.6 7.04102C1227.93 7.64323 1227.14 7.94434 1226.23 7.94434C1225.25 7.94434 1224.41 7.61882 1223.69 6.96777C1222.99 6.30046 1222.64 5.51107 1222.64 4.59961C1222.64 3.70443 1223.19 2.8418 1224.3 2.01172C1225.42 1.16536 1226.77 0.742188 1228.33 0.742188C1229.91 0.742188 1231.36 1.20605 1232.7 2.13379C1234.05 3.06152 1234.72 4.18457 1234.72 5.50293C1234.72 7.60254 1233.85 9.18945 1232.11 10.2637C1230.39 11.3216 1227.23 12.1029 1222.64 12.6074C1222.77 16.4323 1222.83 19.6631 1222.83 22.2998C1222.83 25.7178 1222.68 31.1702 1222.37 38.6572C1224.99 38.6572 1227.12 38.3236 1228.74 37.6562V39.1943C1226.45 39.5361 1224.06 39.7396 1221.59 39.8047C1220.74 39.8372 1219.56 40.0163 1218.03 40.3418V38.999L1221.08 38.8037C1221.08 35.5322 1220.82 31.0645 1220.3 25.4004C1219.78 19.7201 1219.19 15.6348 1218.54 13.1445C1216.47 13.5677 1213.4 13.9827 1209.33 14.3896L1209.68 19.0039L1208.38 19.1504C1208.27 16.2533 1208.03 14.0397 1207.67 12.5098L1208.94 12.29L1209.14 13.291C1213.61 12.9004 1217.9 12.3389 1221.98 11.6064C1226.07 10.874 1228.82 10.0358 1230.26 9.0918C1231.71 8.13151 1232.43 6.76432 1232.43 4.99023C1232.43 3.96484 1232.05 3.11849 1231.28 2.45117C1230.53 1.78385 1229.52 1.4502 1228.23 1.4502C1227.32 1.4502 1226.46 1.77572 1225.64 2.42676C1224.83 3.06152 1224.42 3.78581 1224.42 4.59961C1224.42 5.23438 1224.63 5.83659 1225.03 6.40625C1225.46 6.97591 1225.94 7.26074 1226.47 7.26074C1227.06 7.26074 1227.52 7.08984 1227.86 6.74805C1228.21 6.40625 1228.38 5.99121 1228.38 5.50293C1228.38 5.25879 1228.29 5.01465 1228.11 4.77051C1227.93 4.52637 1227.7 4.4043 1227.42 4.4043C1227.18 4.4043 1226.83 4.56706 1226.38 4.89258ZM1253.86 33.5059C1254.59 33.7012 1254.95 34.0023 1254.95 34.4092C1254.95 35.0114 1254.79 35.5404 1254.47 35.9961C1254.14 36.4355 1253.72 36.6553 1253.2 36.6553C1252.63 36.6553 1252.15 36.403 1251.76 35.8984C1251.38 35.3939 1251.19 34.8405 1251.19 34.2383C1251.19 33.3105 1251.62 32.4154 1252.46 31.5527C1253.33 30.6901 1254.08 30.2588 1254.71 30.2588C1256.13 30.2588 1257.24 30.5599 1258.06 31.1621C1258.89 31.748 1259.3 32.6107 1259.3 33.75C1259.3 34.6777 1258.99 35.6868 1258.37 36.7773C1257.77 37.8516 1257.07 38.7142 1256.27 39.3652C1255.49 40.0163 1254.71 40.415 1253.93 40.5615C1253.15 40.7243 1252.04 40.8057 1250.61 40.8057C1249.97 40.8057 1248.54 40.6592 1246.31 40.3662C1244.08 40.0895 1242.29 39.9512 1240.94 39.9512C1239.98 39.9512 1238.63 40.1139 1236.89 40.4395V39.1455L1239.7 38.9502C1239.18 32.1143 1238.62 26.7594 1238.04 22.8857C1237.47 19.012 1236.59 14.8128 1235.4 10.2881L1232.79 10.5078V9.23828C1238.37 9.05924 1243.36 8.53027 1247.75 7.65137L1253.25 6.55273C1252.68 9.61263 1252.46 12.2982 1252.59 14.6094H1251.39L1251.54 9.0918L1240.16 9.84863C1240.68 17.3519 1240.94 22.487 1240.94 25.2539C1245.71 25.0423 1249.48 24.4564 1252.24 23.4961V25.4492C1248.84 26.1165 1245.08 26.499 1240.94 26.5967C1241.01 28.2568 1241.04 30.3971 1241.04 33.0176C1241.04 34.9382 1241.02 36.8831 1240.99 38.8525L1250.49 39.1455C1253.42 39.1455 1255.28 38.8118 1256.08 38.1445C1256.89 37.4772 1257.3 36.4762 1257.3 35.1416C1257.3 32.8467 1256.13 31.6992 1253.81 31.6992C1253.47 31.6992 1253.11 31.9108 1252.73 32.334C1252.37 32.7409 1252.2 33.2292 1252.2 33.7988C1252.2 34.2057 1252.37 34.5312 1252.71 34.7754C1253.05 35.0195 1253.36 35.1416 1253.64 35.1416C1253.98 35.1416 1254.15 34.9626 1254.15 34.6045C1254.15 34.2627 1253.98 33.9941 1253.64 33.7988L1253.86 33.5059ZM1306.94 39.4385C1305.46 40.1546 1303.41 40.6266 1300.81 40.8545C1299.72 36.1019 1299.05 31.1865 1298.81 26.1084C1298.12 26.1735 1297.02 26.2061 1295.49 26.2061C1292.9 26.2061 1290.67 26.0514 1288.8 25.7422C1287.92 30.332 1286.65 33.8477 1284.99 36.2891C1283.35 38.7305 1281.4 39.9512 1279.16 39.9512C1278.03 39.9512 1277.03 39.4222 1276.15 38.3643C1275.29 37.29 1274.86 36.1507 1274.86 34.9463C1274.86 33.9697 1275.25 32.9199 1276.03 31.7969C1276.81 30.6576 1277.65 30.0879 1278.54 30.0879C1279.02 30.0879 1279.49 30.3483 1279.96 30.8691C1280.45 31.3737 1280.69 31.8701 1280.69 32.3584C1280.69 32.9281 1280.52 33.5221 1280.18 34.1406C1279.84 34.7428 1279.43 35.0439 1278.96 35.0439C1278.89 35.0439 1278.77 34.9951 1278.59 34.8975C1279.07 34.5394 1279.3 34.0918 1279.3 33.5547C1279.3 33.2129 1279.18 32.8792 1278.94 32.5537C1278.69 32.2119 1278.41 32.041 1278.11 32.041C1276.58 32.041 1275.81 32.7246 1275.81 34.0918C1275.81 35.3451 1276.15 36.2728 1276.84 36.875C1277.52 37.4609 1278.67 37.7539 1280.3 37.7539C1282.63 37.7539 1284.24 36.3949 1285.14 33.6768C1286.05 30.9424 1286.5 28.1185 1286.5 25.2051C1281.03 23.9681 1278.3 22.0964 1278.3 19.5898C1278.3 18.8737 1278.52 18.2227 1278.96 17.6367C1279.42 17.0508 1279.96 16.7578 1280.6 16.7578H1281.11C1280.54 17.4414 1280.25 18.2227 1280.25 19.1016C1280.25 20.3385 1280.81 21.4128 1281.91 22.3242C1283.02 23.2357 1284.53 23.9111 1286.45 24.3506C1286.36 23.0973 1286.31 21.8441 1286.31 20.5908C1286.31 18.0843 1286.63 16.0173 1287.26 14.3896C1287.9 12.7458 1288.96 11.2891 1290.46 10.0195C1291.96 8.73372 1293.64 7.78158 1295.51 7.16309C1297.38 6.52832 1299.3 6.21094 1301.25 6.21094C1302.42 6.21094 1303.11 6.22721 1303.3 6.25977C1301.87 12.9329 1301.07 18.8493 1300.91 24.0088C1301.2 23.9437 1301.65 23.8053 1302.25 23.5938L1302.35 25.7422C1301.65 25.8073 1301.17 25.8561 1300.91 25.8887V27.6465C1300.91 32.8223 1301.23 36.7367 1301.86 39.3896C1303.06 39.3571 1304.66 38.9421 1306.65 38.1445L1306.94 39.4385ZM1299.59 7.40723C1296.81 7.30957 1294.51 8.2373 1292.7 10.1904C1290.91 12.1436 1289.76 16.2288 1289.24 22.4463C1289.16 23.5368 1289.08 24.318 1288.99 24.79C1290.34 24.9365 1291.41 25.0098 1292.19 25.0098C1293.93 25.0098 1296.11 24.8226 1298.71 24.4482C1298.63 22.5114 1298.59 20.9977 1298.59 19.9072C1298.59 15.4801 1298.92 11.3135 1299.59 7.40723ZM1344.31 36.4111C1344.73 36.5576 1344.94 36.8018 1344.94 37.1436C1344.94 37.9411 1344.38 38.3398 1343.26 38.3398C1342.75 38.3398 1342.23 38.112 1341.69 37.6562C1341.16 37.2005 1340.89 36.7285 1340.89 36.2402C1340.89 35.5241 1341.3 34.8486 1342.11 34.2139C1342.92 33.5791 1343.8 33.2617 1344.75 33.2617C1345.46 33.2617 1346.1 33.5791 1346.65 34.2139C1347.22 34.8324 1347.51 35.6299 1347.51 36.6064C1347.51 37.6807 1346.96 38.8363 1345.87 40.0732C1344.78 41.3265 1343.79 41.9531 1342.89 41.9531C1341.18 41.9531 1339.92 41.416 1339.11 40.3418C1338.31 39.2839 1337.81 38.0143 1337.62 36.5332C1337.44 35.0358 1337.35 33.099 1337.35 30.7227L1337.67 17.417C1337.67 16.0824 1337.63 14.707 1337.54 13.291C1333.26 21.8197 1330.68 27.9557 1329.81 31.6992L1328.39 31.7969C1326.99 28.7207 1325.26 25.1562 1323.19 21.1035C1321.12 17.0508 1319.8 13.9014 1319.21 11.6553C1319 14.2269 1318.89 17.2217 1318.89 20.6396C1318.89 26.2874 1319.19 32.2933 1319.8 38.6572C1320.95 38.6572 1322.49 38.7549 1324.41 38.9502L1324.24 39.9023C1317.4 39.6908 1313.89 39.5605 1313.69 39.5117L1313.79 38.291C1315.94 38.584 1317.57 38.7061 1318.7 38.6572C1317.41 30.4704 1316.82 20.8024 1316.94 9.65332C1314.29 9.65332 1312.45 9.72656 1311.42 9.87305C1310.41 10.0195 1309.57 10.459 1308.91 11.1914C1308.24 11.9238 1307.91 12.8923 1307.91 14.0967C1307.91 14.9919 1308.24 15.7243 1308.91 16.2939C1309.59 16.8636 1310.34 17.1484 1311.15 17.1484C1311.62 17.1484 1312.06 17.0264 1312.45 16.7822C1312.85 16.5381 1313.06 16.2614 1313.06 15.9521C1313.06 15.7731 1312.95 15.5697 1312.74 15.3418C1312.53 15.1139 1312.35 15 1312.2 15C1311.42 15 1310.75 15.3174 1310.2 15.9521C1309.86 15.7243 1309.69 15.4557 1309.69 15.1465C1309.69 14.7233 1309.89 14.3571 1310.3 14.0479C1310.72 13.7223 1311.09 13.5596 1311.4 13.5596C1311.97 13.5596 1312.57 13.8037 1313.2 14.292C1313.84 14.764 1314.16 15.2848 1314.16 15.8545C1314.16 16.6195 1313.85 17.3193 1313.25 17.9541C1312.67 18.5889 1312.03 18.9062 1311.35 18.9062C1310.26 18.9062 1309.28 18.4505 1308.42 17.5391C1307.57 16.6276 1307.15 15.3825 1307.15 13.8037C1307.15 12.5667 1307.66 11.4193 1308.69 10.3613C1309.71 9.28711 1310.92 8.75 1312.3 8.75C1313.5 8.75 1315.26 8.6849 1317.57 8.55469C1319.88 8.4082 1321.48 8.25358 1322.36 8.09082L1322.7 9.14062C1321.5 9.28711 1320.59 9.36035 1319.99 9.36035C1321.57 14.0316 1324.89 19.9154 1329.95 27.0117C1331.92 22.1126 1333.49 18.4587 1334.66 16.0498C1335.85 13.641 1336.83 11.3379 1337.59 9.14062C1337.35 9.07552 1336.23 8.89648 1334.25 8.60352L1334.54 7.60254C1335.09 7.78158 1336.75 8.04199 1339.52 8.38379C1342.31 8.70931 1344.67 8.91276 1346.6 8.99414L1346.36 10.0439C1345.14 10.0439 1343.52 9.89746 1341.5 9.60449C1341.37 10.1742 1340.99 13.8932 1340.38 20.7617C1339.76 27.6139 1339.45 32.6595 1339.45 35.8984C1339.45 39.4303 1340.4 41.1963 1342.31 41.1963C1343.23 41.1963 1344.03 40.8057 1344.7 40.0244C1345.36 39.2594 1345.7 38.2992 1345.7 37.1436C1345.7 35.0114 1345.19 33.9453 1344.16 33.9453C1343.8 33.9453 1343.42 34.1162 1343.01 34.458C1342.61 34.7835 1342.4 35.1497 1342.4 35.5566C1342.4 36.0938 1342.53 36.582 1342.79 37.0215C1343.05 37.4447 1343.34 37.6562 1343.65 37.6562C1344.09 37.6562 1344.31 37.2412 1344.31 36.4111ZM1365.76 17.002C1365.5 17.3926 1365.16 17.5879 1364.76 17.5879C1364.48 17.5879 1364.21 17.3763 1363.95 16.9531C1363.69 16.5299 1363.56 16.1637 1363.56 15.8545C1363.56 15.4964 1363.79 15.0977 1364.24 14.6582C1364.72 14.2188 1365.2 13.999 1365.71 13.999C1366.2 13.999 1366.73 14.3164 1367.3 14.9512C1367.87 15.5859 1368.15 16.1719 1368.15 16.709C1368.15 17.946 1367.75 18.9876 1366.95 19.834C1366.17 20.6803 1365.33 21.1035 1364.44 21.1035C1363.41 21.1035 1362.52 20.6396 1361.75 19.7119C1360.99 18.7679 1360.61 17.7344 1360.61 16.6113C1360.61 15 1361.39 13.4701 1362.95 12.0215C1364.51 10.5729 1366.47 9.84863 1368.81 9.84863C1372.26 9.84863 1375.36 11.2891 1378.11 14.1699C1380.86 17.0508 1382.24 20.1921 1382.24 23.5938C1382.24 27.8743 1380.75 31.7562 1377.77 35.2393C1374.79 38.7061 1371.35 40.4395 1367.44 40.4395C1362.93 40.4395 1359.11 38.9583 1355.97 35.9961C1352.83 33.0176 1351.26 29.502 1351.26 25.4492C1351.26 21.5104 1352.52 17.9215 1355.04 14.6826C1357.58 11.4437 1360.7 9.36849 1364.39 8.45703L1364.71 9.18945C1361.71 9.77539 1359.3 11.5332 1357.48 14.4629C1355.66 17.3926 1354.75 20.835 1354.75 24.79C1354.75 28.9404 1355.98 32.4479 1358.43 35.3125C1360.89 38.1771 1364.03 39.6094 1367.86 39.6094C1370.95 39.6094 1373.5 38.0957 1375.5 35.0684C1377.5 32.041 1378.5 28.5498 1378.5 24.5947C1378.5 20.6722 1377.53 17.4333 1375.6 14.8779C1373.66 12.3226 1371.16 11.0449 1368.1 11.0449C1366.23 11.0449 1364.65 11.6227 1363.37 12.7783C1362.1 13.9176 1361.46 15.1709 1361.46 16.5381C1361.46 17.2705 1361.76 17.8809 1362.36 18.3691C1362.97 18.8574 1363.59 19.1016 1364.24 19.1016C1365.07 19.1016 1365.78 18.9062 1366.37 18.5156C1366.95 18.1087 1367.25 17.6204 1367.25 17.0508C1367.25 16.5788 1367.08 16.1882 1366.73 15.8789C1366.39 15.5534 1366.02 15.3906 1365.61 15.3906C1364.67 15.3906 1364.2 15.5452 1364.2 15.8545C1364.2 16.1312 1364.72 16.5137 1365.76 17.002Z" fill="white"/>
</svg>
